<svg xmlns="http://www.w3.org/2000/svg" height="583.854" viewBox="0 0 402.342 437.869" width="536.482" xmlns:v="https://vecta.io/nano"><style><![CDATA[.Ag{fill:#1f0400}.Ah{stroke:#1f0400}.Ai{fill:#e1a880}.Aj{stroke:#e1a880}.Ak{fill:#834625}.Al{stroke:#834625}.Am{fill:#000002}.An{stroke:#000002}.Ao{fill:#190d05}.Ap{stroke:#190d05}.Aq{fill:#38312f}.Ar{stroke:#38312f}.As{fill:#f1ece1}.At{stroke:#f1ece1}.Au{fill:#f1a564}.Av{stroke:#f1a564}.Aw{fill:#a99078}.Ax{stroke:#a99078}.Ay{fill:#b8a892}.Az{stroke:#b8a892}.BA{fill:#231d1a}.BB{stroke:#231d1a}.BC{fill:#130e0e}.BD{stroke:#130e0e}.BE{fill:#fbf6f1}.BF{stroke:#fbf6f1}.BG{fill:#a8633d}.BH{stroke:#a8633d}.BI{fill:#d48954}.BJ{stroke:#d48954}.BK{fill:#f4f3ef}.BL{stroke:#f4f3ef}.BM{fill:#f19d54}.BN{stroke:#f19d54}.BO{fill:#ac9a83}.BP{stroke:#ac9a83}.BQ{fill:#15120b}.BR{stroke:#15120b}.BS{fill:#231d1b}.BT{stroke:#231d1b}]]></style><g stroke-width=".3"><path d="M313.192 1.305c6-1 12-2 18 0l1 2 3 1c2 1 6 2 6 5 0 4-4 6-6 8l-5 5c-3 1-5 3-6 6-7 4-11 12-15 18l-11 16-15 10h-2c7-5 15-10 21-17s9-17 15-24l11-10c4-2 5-6 9-8l1-1a55 55 0 0 0 1-2c-1-5-7-5-12-5l1-2 2 1v-2h-15c-11 1-23 2-34 6l-12 7-8 9c-7 7-15 13-20 22h-1l-3-1 20-21c6-6 11-12 19-15 11-6 24-8 37-8z" class="Ag Ah"/><path d="M315.192 2.305h15v2l-2-1c-6-1-12 0-18 1l-16 2c-4 1-8 3-13 2 11-4 23-5 34-6z" class="Ai Aj"/><path d="M331.192 1.305l4 3-3-1z" class="Ay Az"/><path d="M310.192 4.305c6-1 12-2 18-1l-1 2 2 2-1 1-7 1-9 1v2l-13 1 3 2-8 3-6 1-3 1h2l-7 3 2 1c-4 1-7 4-11 7l-6 7-1 2c-6 4-10 11-14 18-3 5-4 10-3 15l-2 14v-2l-3 6-2 1-1 1 3 1h1c0 2-1 3-3 4h-1l2 4 8 5h-2c3 2 7 1 10-1h3l-9 7-2-1 1 3 6-2-1 4h6c-3 2-6 3-8 6l1 1 1 1-3 2h-1l2 2v2l-1 3-1 2 3 2-1 5 3 2 2 1 2 1 1 2-5 2 6 1 4 3-2 2-3-1 1 2v4c-20-7-41-4-60 3-4 1-7 5-12 4l-4-3v-3c5-4 11-7 17-9l7 2h-4l9 2 1-1-1-2 8-3 5 2v-4l-5-3c4 0 8 1 12-1h3l-3-12 1-3 1-6v-1l1-7 3-1-7-4h4l-6-4c-2-5-8-5-12-7l-2-2h3-10c-2 1-5 3-6 6-3 3-4 7-5 11l-3-1-9 11c-4 6-5 12-7 19l-4 13h-1l-1 1-4 5h-3l-5 6-5 3-4 2-2-1-6 1-1 4c-4 0-8-2-10-5l1-13-2 2-2-5c2-11 2-23 6-33h1c3-2 5-6 2-10 0-2 0-5 2-7-2-3 0-7-1-10l4-1 1 7-1-8c3-1 6-2 8-1l4-2-1-1-1-1 2-1c-1 1-1 4 1 4l2-6 4 1-1 6c2-2 3-5 3-9l5 3 2-3 2 1a92 92 0 0 0 3-1c4-2 7 0 11-1 4-2 8-1 13-2h5l-2-8c3 3 4 7 8 8-1-5-5-10-10-10l-1 6c-3 0-5 0-7-2l-3-5-2-1-1-1v2c0 2-1 5-3 7l-1-1-4-6h-1c0-3-2-6-3-8l-1-2-2-7v1l-16-20v-1l5 2c-5-5-10-7-16-10-4-2-9-3-11-8-2-3-6-3-9-4l-6-2h-1l5-4h14c10 1 20 3 29 6 5 3 11 3 16 7l8 9c7 7 12 17 16 26l6 18c-2 4 2 6 3 10h2l7 4h1l1-1 2 2 2 1h3l2 1c1-3 2-5 1-7v-1l-3-2c-1-5 0-9 1-14l-2 5c-2-1-4-2-3-4l2-11 7-12c5-9 13-15 20-22l8-9 12-7c5 1 9-1 13-2z" fill="#f29e55" stroke="#f29e55"/><path d="M106.192 5.305c6-2 12-2 18 0l20 1a115 115 0 0 1 35 10c6 2 11 6 16 10 6 6 10 13 14 20 6 10 5 23 12 33l2 4c4-10 5-20 11-29 1-3 3-6 6-8h1l-7 12-5 12c-1 5-4 11-2 17v2l-7-4h-2c-1-4-5-6-3-10l1 4c1-4-1-9-2-13-3-7-4-14-8-20-4-7-7-13-13-18l-12-10c-13-5-26-9-39-10-8 0-15 0-22-2h-13c-2 0-3 2-4 3-1 2-2 4 0 6 2 4 5 6 9 8l8 1-1-1 1 2-5 1-3 1 5 6 8 13 7 8c4 4 9 6 11 11 2 4 5 6 8 9l21 13v-3l3 1-1 1-2 3-5-3c0 4-1 7-3 9l1-6-4-1-2 6c-2 0-2-3-1-4v-1l-1-1c2-1 5-4 7-1-7-9-19-12-23-23l-10-8c-10-9-15-21-22-32-4-3-8-6-9-11-1-4 3-7 6-8z" class="Ao Ap"/><path d="M327.192 5.305c5 0 11 0 12 5l-3-1c-2-2-5-3-8-1l1-1z" fill="#bba285" stroke="#bba285"/><path d="M103.192 9.305c1-1 2-3 4-3h13l6 3-4 4-6-1h-1l3-2-14-2z" fill="#e8a05e" stroke="#e8a05e"/><path d="M120.192 6.305c7 2 14 2 22 2 13 1 26 5 39 10l12 10c6 5 9 11 13 18 4 6 5 13 8 20 1 4 3 9 2 13l-1-4-6-18c-4-9-9-19-16-26l-8-9c-5-4-11-4-16-7-9-3-19-5-29-6h-14z" fill="#fff5e3" stroke="#fff5e3"/><path d="M328.192 8.305c3-2 6-1 8 1l-2 3-1-1-6-1-6-1z" fill="#833e15" stroke="#833e15"/><path d="M103.192 15.305c-2-2-1-4 0-6l1-1-2 3c0 3 2 6 6 7l11 5 1 1-8-1c-4-2-7-4-9-8z" class="Ai Aj"/><path d="M104.192 8.305l14 2-12 2 1 1-1 2 2 3c-4-1-6-4-6-7z" fill="#3f2b23" stroke="#3f2b23"/><path d="M118.192 10.305l-3 2h1c1 2 4 2 6 1l6 2h-11l-10-2-1-1z" class="Ai Aj"/><path d="M321.192 9.305l6 1h-2a21 21 0 0 0-9 5l-5-1h-4 5v-4z" fill="#ae836c" stroke="#ae836c"/><path d="M334.192 12.305l2-3 3 1-1 2-1 1z" class="Aq Ar"/><path d="M325.192 10.305h2l6 1v2l-3 1c-1-3-3-4-5-4z" fill="#e9c3a2" stroke="#e9c3a2"/><path d="M316.192 15.305a21 21 0 0 1 9-5c2 0 4 2 5 4-10 2-20 2-29 6l-5-1 15-5z" fill="#f7f2ec" stroke="#f7f2ec"/><path d="M333.192 11.305l1 1 3 1c-4 2-5 6-9 8l-11 10c-6 7-9 17-15 24s-14 12-21 17l-10 10-2-1c0-4 3-7 5-11 3-6 9-10 13-16 3-3 6-5 7-8l-16 8v-2c1-5 3-10 6-14 6-6 11-12 18-16s15-4 23-6l9-2-1-1z" fill="#c17137" stroke="#c17137"/><path d="M116.192 12.305l6 1c-2 1-5 1-6-1z" class="Ag Ah"/><path d="M299.192 13.305l13-1v2h-5l-5 1-3-2z" class="Ak Al"/><path d="M107.192 13.305l10 2 3 2 12 4-1 2c3 0 6 1 8 3 0 2 2 3 4 4l5 5 10 10 7 6-2 2 2 3h1c0 4 3 7 5 10l8 17c-1 2-2 2-4 2l-3-1-11-7 1-2-4-2-5-6c3-2-1-6-3-7l2-2-1-1-5-7-6-1 4-2c-3-2-6-5-10-6l4-1-5-5-2-1c0-1-1-3-3-3-2-2-4-5-8-6l-1-2-11-5-2-3z" fill="#14131d" stroke="#14131d"/><path d="M301.192 20.305c9-4 19-4 29-6l3-1 1 1-9 2c-8 2-16 2-23 6s-12 10-18 16c-3 4-5 9-6 14l-4 11-5 11-3 4c-3 1-5 2-8 1l6-3 3-4-2-2 4-2c1-2 2-4 1-6l2-2v-3h2l-3-1 2-2h-3l4-4-2-1 5-4-2-2 3-1v-2l4-3 2-4 5-3h-6c3-3 7-5 11-6h1l3-2z" fill="#150f0f" stroke="#150f0f"/><path d="M302.192 15.305l5-1h4l-15 5-2-1z" class="Ai Aj"/><path d="M117.192 15.305h11c3 1 7 1 9 4-5-2-11-4-17-2z" class="Ak Al"/><path d="M120.192 17.305c6-2 12 0 17 2 2 4 7 6 11 8 3 4 6 7 10 9 7 6 11 14 16 22l-8-2h-1l-2-3 2-2-7-6-10-10-5-5c-2-1-4-2-4-4-2-2-5-3-8-3l1-2z" fill="#f1f0e9" stroke="#f1f0e9"/><path d="M288.192 19.305l6-1 2 1 5 1-3 2-5-1h-1z" fill="#ad8f7d" stroke="#ad8f7d"/><path d="M285.192 20.305l3-1 4 2-5-1z" class="Ag Ah"/><path d="M280.192 23.305l7-3 5 1h1l5 1-3 2h-13z" fill="#f1e5d9" stroke="#f1e5d9"/><path d="M324.192 28.305c1-3 3-5 6-6 1 2 3 5 1 7 0 7-2 13-3 20l-1 8-7 13c-7 15-21 26-36 33l-8 5-8 7v1l2 1-16 7-1-1c2-3 5-4 8-6h2l2-1a38 38 0 0 1 1-1l3-3 5-4c1-1 3-5 5-5h1l10-6c7-3 13-7 18-13 7-7 11-16 16-24 3-5 2-11 3-17 2-3 2-6 2-9v-11c-2 0-3 2-4 4z" fill="#070505" stroke="#070505"/><path d="M157.192 23.305c4 1 6 4 9 6 4 2 8 4 10 8l-4-2v3c0-2-1-5-3-6z" class="Ag Ah"/><path d="M282.192 24.305h13-1c-4 1-8 3-11 6h6l-5 3-2 4-4 3v2h-7l-7-2 1-2 6-7c4-3 7-6 11-7z" class="As At"/><path d="M325.192 27.305c1-2 2-4 4-4v11c0 3 0 6-2 9-1 6 0 12-3 17-5 8-9 17-16 24-5 6-11 10-18 13l-10 6h-1c-2 0-4 4-5 5l-7 2-4 7h-8l1-4 11-12 17-10 19-7 1-3 5-4v-2l5-5-2-2 4-4v-2l2-4 2-1 2-9-1-2 1-1v-6l1-1c1-3 2-7 1-10z" fill="#f7f2ec" stroke="#f7f2ec"/><path d="M112.192 27.305l3-1 5 3-3 1 2 3h-2z" fill="#976443" stroke="#976443"/><path d="M115.192 26.305l5-1c4 1 6 4 8 6 2 0 3 2 3 3l2 1 5 5-4 1c4 1 7 4 10 6l-4 2 6 1 5 8h1l-2 2c2 1 6 5 3 7l5 6-7 1c-3-3-6-5-8-9-2-5-7-7-11-11h2l11 8-10-9a97 97 0 0 1-3-3l-7-10a183 183 0 0 0-1-7l-2-2-2-2z" fill="#f6f2ec" stroke="#f6f2ec"/><path d="M148.192 27.305c6 3 11 5 16 10l-5-2a64 64 0 0 0-2-1l1 2c-4-2-7-5-10-9z" class="Ak Al"/><path d="M120.192 29.305l2 2-1 1-1 1 3 5c0 3 3 6 5 8l4 4 3 3-1 1h-2l-7-8-8-13h2l-2-3z" class="Ai Aj"/><path d="M309.192 46.305c4-6 8-14 15-18 1 3 0 7-1 10l-5 2-1 1a53 53 0 0 1-2 6l-9 8h1c-3 2-5 6-9 7z" fill="#c46f3d" stroke="#c46f3d"/><path d="M274.192 30.305c1 0 4-1 4 1-1 1-4 1-4-1z" fill="#dbcfc5" stroke="#dbcfc5"/><path d="M121.192 32.305l1-1 2 2c-2 1-3 0-3-1zm59-1l9 15c-2 0-3-3-4-5z" class="Ag Ah"/><path d="M120.192 33.305l1-1c0 1 1 2 3 1l1 7-2-2z" fill="#eec394" stroke="#eec394"/><path d="M157.192 34.305l2 1v1a510 510 0 0 1 18 26l1 2v1l-1-1-3-6c-5-8-9-16-16-22z" class="Ag Ah"/><path d="M128.192 46.305c-2-2-5-5-5-8l2 2 7 10z" class="Ak Al"/><path d="M318.192 40.305l5-2-1 1c-1 1-3 3-4 1z" class="Ag Ah"/><path d="M318.192 40.305c1 2 3 0 4-1v5c-2 1-4 3-7 3a53 53 0 0 0 2-6z" fill="#ca8458" stroke="#ca8458"/><path d="M250.192 58.305c4-7 8-14 14-18l7 2h7l-3 1 2 2-5 4 2 1-4 4h3l-2 2 3 1h-2v3l-2 2-5 5 4 1-4 2-4 5 3 1-6 3c3 1 5 0 8-1l-9 5-2 2 4 1-7 4 2 1-4 2 1 2 3 2-3 2v1l2 1c-2 1-5 0-7-2l-1-2h4c-1-1-4 0-4-3h-3 4a101 101 0 0 0 1-4l-7 2 2-1c2 0 3-2 3-4l2-14c0-4 1-9 4-13z" fill="#f4f2ed" stroke="#f4f2ed"/><path d="M315.192 47.305c3 0 5-2 7-3v1l-1 1c-6 1-9 6-14 9h-1z" class="Ag Ah"/><path d="M278.192 54.305l16-8c-1 3-4 5-7 8-4 6-10 10-13 16l-5 4 5-11 4-11z" class="Ak Al"/><path d="M307.192 55.305c5-3 8-8 14-9l1 2-2 8-2 2-2 4v2l-4 4 2 2-5 5v2l-5 4-1 3-19 7c-9 4-18 9-24 15h-3l-1-3v-1l7-8 7-7c2-3 4-7 7-9l6-6 15-10c4-1 6-5 9-7z" class="BM BN"/><path d="M185.192 48.305l1 1 3 13c-3-4-4-9-4-14z" class="Ak Al"/><path d="M135.192 53.305l10 9-11-8z" class="Ao Ap"/><path d="M175.192 56.305v-1l2 7z" class="BE BF"/><path d="M166.192 56.305l8 2 3 6c-2 1-3-1-4-3 0 2 0 4-2 5-2-3-5-6-5-10z" fill="#bdae8f" stroke="#bdae8f"/><path d="M229.192 70.305l5-12-2 11c-1 2 1 3 3 4-1 5 1 11-2 16l-2-10-4 8c-2-6 1-12 2-17z" fill="#efa05c" stroke="#efa05c"/><path d="M247.192 73.305c-1-5 0-10 3-15l1 2c-3 4-4 9-4 13z" class="Ag Ah"/><path d="M173.192 61.305c1 2 2 4 4 3l1 1v-1c1 2 3 5 3 8-2 3-1 7-2 11l-8-17c2-1 2-3 2-5z" fill="#baa27f" stroke="#baa27f"/><path d="M265.192 67.305l5-5c1 2 0 4-1 6z" fill="#796f6c" stroke="#796f6c"/><path d="M220.192 74.305c-1-3-3-7 0-10 0 5 1 10 4 15-3-1-3-3-4-5z" fill="#120f15" stroke="#120f15"/><path d="M235.192 73.305l2-5c-1 5-2 9-1 14 1 3-1 7-3 9l-2-1-2-2c1-3-2-2-2 1v-2l4-8 2 10c3-5 1-11 2-16z" fill="#140400" stroke="#140400"/><path d="M190.192 70.305l1 1 3 8 10 2v-8c5 0 9 5 10 10-4-1-5-5-8-8l2 8h-5l-8-1-11 2-2-4c0 2-1 5-3 6a92 92 0 0 1-3 1l-2-1 1-1c2 0 3 0 4-2 1-4 0-8 2-11h1v3l5 8a149 149 0 0 0-1-5l1 1 2 2 3-1-2-8z" fill="#2c1908" stroke="#2c1908"/><path d="M261.192 75.305l4-5 2 2-3 4z" fill="#918c88" stroke="#918c88"/><path d="M191.192 71.305l2 1 3 5c2 2 4 2 7 2l1-6v8l-10-2z" fill="#dfa06e" stroke="#dfa06e"/><path d="M269.192 74.305l5-4c-2 4-5 7-5 11l2 1-5 6-5-1c2-3 7-5 5-9z" fill="#be7245" stroke="#be7245"/><path d="M187.192 79.305c2-2 3-5 3-7l2 8-3 1z" fill="#daaa84" stroke="#daaa84"/><path d="M271.192 82.305l10-10h2l-6 6c-3 2-5 6-7 9l-7 7-2-1a96 96 0 0 0 10-11z" fill="#7f4016" stroke="#7f4016"/><path d="M152.192 74.305l6-1 4 2-1 2 11 7v3c-8-4-14-8-20-13z" class="BE BF"/><path d="M182.192 72.305l4 6 1 5-5-8z" class="Ai Aj"/><path d="M257.192 83.305l9-5c2 4-3 6-5 9l-7 8h-3l5-5h-4l7-4 3-2z" fill="#1f0a08" stroke="#1f0a08"/><path d="M182.192 80.305l2 4 11-2 8 1c-5 1-9 0-13 2-4 1-7-1-11 1 2-1 3-4 3-6z" class="Ai Aj"/><path d="M218.192 81.305c2-1 3 2 2 2-1 1-3-1-2-2z" fill="#b7876d" stroke="#b7876d"/><path d="M236.192 82.305l3 2-3 7h-3c2-2 4-6 3-9z" class="Ai Aj"/><path d="M255.192 85.305l2-2 5 1-3 2z" fill="#8e8b89" stroke="#8e8b89"/><path d="M239.192 84.305l1 1-2 7-2-1z" class="Ag Ah"/><path d="M245.192 85.305v2c0 2-1 4-3 4z" class="BG BH"/><path d="M227.192 89.305c0-3 3-4 2-1l-1 1z" fill="#e2ad81" stroke="#e2ad81"/><path d="M254.192 95.305l7-8 5 1-5 5-4 3 1 2-1 1h-3l2-4z" fill="#945335" stroke="#945335"/><path d="M240.192 92.305l7-2-1 4h-4l-3-1z" class="Ao Ap"/><path d="M252.192 90.305h4l-5 5-1-2 4-2z" fill="#989596" stroke="#989596"/><path d="M260.192 106.305l8-5c-5 3-8 9-12 12l-6 2-1-3 2 1z" class="Ao Ap"/><path d="M138.192 95.305l4-2 15-1 1 1-4 2c-2-1-5 0-8 1l1 8-1-7-4 1c1 3-1 7 1 10-2 2-2 5-2 7l-1 3c0-4 0-9-2-13a10 10 0 0 0-5 0l2 2-9 2 6-6v-2c3-2 5-3 8-3v-2h5z" class="BA BB"/><path d="M257.192 96.305l4-3 2 1-7 8-6 2c-4-1-6-5-10-6 2-1 3-2 3-4h2c0 3 3 2 4 3h-4l1 2c2 2 5 3 7 2l4-2 1-1z" class="Ag Ah"/><path d="M251.192 95.305h5l-2 4h3l-4 2-2-1v-1l3-2z" class="BI BJ"/><path d="M211.192 99.305h10-3l-5 4 10 1h-13l5-5c-4 1-8 4-10 8v-2c1-3 4-5 6-6z" class="Ag Ah"/><path d="M239.192 98.305h1c4 1 6 5 10 6l6-2v1l-7 4-8-5z" fill="#f1ccb0" stroke="#f1ccb0"/><path d="M137.192 100.305c1-1 4 0 4 2-1-1-5 0-4-2z" fill="#9d9089" stroke="#9d9089"/><path d="M205.192 107.305c2-4 6-7 10-8l-5 5-4 4h-2z" fill="#dbab7c" stroke="#dbab7c"/><path d="M213.192 103.305l5-4 2 2c4 2 10 2 12 7-3-2-6-4-9-4z" class="Ai Aj"/><path d="M210.192 104.305h13c3 0 6 2 9 4l6 4h-4l7 4-3 1-4 1-1-1v-2l3 1-5-4 1-2c-3-3-8 0-12-3l6-1c-4 0-9-1-12 1l-5 2-1 1-2 1-2-3-5 10 1-2c1-4 2-8 5-11v2l-1 1h2z" fill="#1a1015" stroke="#1a1015"/><path d="M249.192 107.305l7-4 1 3c-3 2-7 3-10 1z" class="Ag Ah"/><path d="M214.192 107.305c3-2 8-1 12-1l-6 1c4 3 9 0 12 3l-1 2 5 4-3-1v2-1l-6-5c1 1 4-1 2-1-6-1-13-2-18 3z" fill="#baa592" stroke="#baa592"/><path d="M209.192 109.305l5-2-3 6c5-5 12-4 18-3l-2 1 6 5v1l1 1 1 2-4 2 6 2v1l-1 6h-7l6 3 3 12h-3l-10-1c2-5 1-10-1-15l-2-5 6 4-3-4h7l-4-3c-5-3-11-3-17-3-8 1-14 7-16 15-2 7-4 15-1 22-7 3-12 8-19 10l2-8 4-13c2-7 3-13 7-19l9-11 3 1-1 2 5-10 2 3 2-1z" fill="#f5f2ed" stroke="#f5f2ed"/><path d="M267.192 110.305l7-2-5 4c-2-2-3 1-3 3l-1 1-2 1z" fill="#94908c" stroke="#94908c"/><path d="M227.192 111.305l2-1c2 0-1 2-2 1z" fill="#111017" stroke="#111017"/><path d="M152.192 124.305c1-5 5-10 9-13-3 4-7 8-9 13z" class="Ag Ah"/><path d="M266.192 115.305c0-2 1-5 3-3z" fill="#b1b0af" stroke="#b1b0af"/><path d="M114.192 114.305l19 1c4 1 7 6 5 10-4 10-4 22-6 33l1 8 1-3 2-2-1 13c2 3 6 5 10 5l9-4 4-2 2 2h-2v6c-3 3-7 4-11 6l-2-1 12-7 1-5c-5 4-12 7-19 5l-5-4 1-6-1-1a80 80 0 0 0-3-1l-1-1c-2 1-3 3-3 5-1 1-3 0-4 2l-8 12 4 1c-2 0-5-1-5 2h6l-5 1v3l5-1-5 3h3c-1 1-3 4 0 5l2-2-2 3 2 2-1 1-3-3-3 2-5 2 1 5 2-2 2 6c2-2 1-4 0-6l6 7h-1c-2 0-2-1-3-2l3 7c-5-2-11-7-11-13-13 14-27 29-34 47l-2 7 5-16c4-9 10-16 15-23l15-16-2-5c-6 5-12 9-17 16 3-7 10-12 16-17v-2c-9 4-16 11-22 19-4 5-7 10-9 16l-1-2a73 73 0 0 1 35-36l8-4-9 2-2-1 3-1c3-1 7 0 8-4l-9 3c-4 3-9 4-14 6-13 6-23 14-33 24-8 7-15 14-21 23 7-12 17-22 27-31 13-12 28-19 44-25 3 0 5-1 6-4l5-6c-6-2-13-3-20-2l-19 1c-15 1-29 5-43 11-3 1-5 3-8 3 1-2 3-2 4-2 18-10 38-15 59-14h17l11 1 3-4c-3-4-7-8-12-7h-1c-2-1-3-2-3-4l7 2 10 8 1-3h2c2-2 3-5 3-8l1-5-9-1h-1l-2-1c6-5 4-15 8-21 2-3 4-6 8-7-1 0-3 0-4-2a128 128 0 0 0-3-3c2 0 2-1 1-2-5-1-10 0-15-2z" class="BC BD"/><path d="M234.192 118.305l4-1-1 7-6-2 4-2z" fill="#c8a98c" stroke="#c8a98c"/><path d="M195.192 134.305c2-8 8-14 16-15 6 0 12 0 17 3l4 3h-7l3 4-6-4 2 5-1 2-4-6c-5-3-12-3-17 1-4 2-5 6-7 9z" fill="#120f15" stroke="#120f15"/><path d="M256.192 124.305l8-2-7 4 4 1c-2 1-6 0-7 3l8 2c-2 3-6 0-9-1v-2l-2-2h1c2 0 4-1 4-3z" class="Ao Ap"/><path d="M130.192 128.305c2-2 4-4 7-4l-7 11c1 0 2 1 2 3l-2-2c-1 5 0 10 1 15-4-1-5-5-5-9l4-13z" fill="#e47f4b" stroke="#e47f4b"/><path d="M202.192 127.305c5-4 12-4 17-1l-1 1c2 4 6 9 5 14-1 4-5 6-7 9-6 2-13 2-19 3l-2-17c2-3 3-7 7-9z" fill="#ee843a" stroke="#ee843a"/><path d="M156.192 134.305c2-4 3-8 6-10-2 4-3 7-6 10z" class="Ag Ah"/><path d="M218.192 127.305l1-1 4 6c3 7 0 16-7 18 2-3 6-5 7-9 1-5-3-10-5-14z" class="Au Av"/><path d="M126.192 142.305c0-5 1-9 4-13z" class="Ai Aj"/><path d="M205.192 129.305c6-2 14 4 13 10-1 7-10 11-14 6s-4-13 1-16z" fill="#0e0b15" stroke="#0e0b15"/><path d="M224.192 130.305c2 5 3 10 1 15l10 1c-4 2-8 1-12 1l5 3-10 2c-5 2-10 1-15 2a120 120 0 0 0-23 11l6 1 4 3c5 1 8-3 12-4l2 1-9 3-3 2 3 3v1l1 2 2 2a26 26 0 0 0 4 0h17l16 8 17 9v1c-11-7-22-11-34-16-5-2-11-2-17-1h-3l1 5 3 1c9 1 17 3 25 6 6 3 12 5 17 9l8 5h-1c2 4 4 8 4 12l2 3 1 1c-5 2-7 7-12 10l5-5c1-3 4-6 2-9 0-4-1-9-5-11l4 10-2 1-1-2-1-9-11-9c-10-6-22-10-34-11l-3-1v7l3 2c8 3 17 7 24 12l10 10-2-8 1 1c2 5 3 11 1 16h-1v-7l-2-2-2-2c-7-9-16-15-27-18-2 1 0 4 0 6 2 3 5 6 6 10l2 6 6 4c-2-4-3-8-6-11h1l6 10 3 3c0-5-4-9-7-14l4 4 5 6 1 1h3v3l2 2v1l-6-5-1 5 7 7 7 7 4 2-6-2c-4-3-7-8-10-12-5-4-11-5-16-9l4 5-4-2 6 8c-3-1-5-4-8-4l-1-1-6-1 4 5c3 4 5 10 7 15h-2c-1-4-2-9-6-10v-3 4l-3-5-2-2h-6l-2-3v2l-8-2h-3a65 65 0 0 1-3-2v-2l-1-2 5 4v-3l7 3-3-5c3 3 7 5 11 5l-1-4 3 2 1-5c1 3 4 4 6 5l-1-7 4 4v-6l3 5c0-3-1-7-3-10-2-4-6-6-9-9 1 1 3 3 5 2v-4l1-1c-1-2-4-2-6-1l-2 2 1-5c1-3 1-5-1-8l-9-1 9 1v-3l-9 1 9-2-4-5-7 4-1-1a41 41 0 0 0 8-4l-5-4c-3 2-7 1-11 2v-3l2 2c3-1 7 0 9-2-3-2-8-4-12-1l-2-2h-1l3-9h1l-2 8c7-2 12-7 19-10-3-7-1-15 1-22v2l2 17c6-1 13-1 19-3 7-2 10-11 7-18z" fill="#141215" stroke="#141215"/><path d="M229.192 131.305h7l-1 3z" fill="#c5aa8f" stroke="#c5aa8f"/><path d="M148.192 134.305c1 3 0 6-2 9z" fill="#bc6926" stroke="#bc6926"/><path d="M212.192 136.305l3-2 1 4h-3z" fill="#fffeff" stroke="#fffeff"/><path d="M252.192 134.305l3-1 1 2 1 2h7l-5 3c4-1 7-3 11-1l-6 1 2 2h-12l2-2v-1h-2l2-2-5-1z" fill="#4b4138" stroke="#4b4138"/><path d="M256.192 135.305c4 1 8 1 11-1-1 2-2 3-4 3h-6z" class="Am An"/><path d="M152.192 154.305l9-12c0 3-2 6-4 8-1 2-3 4-5 4z" fill="#bb6a2a" stroke="#bb6a2a"/><path d="M255.192 144.305c5-2 11 0 16 2h-6l-2 2-3-1-2-1 4-1z" class="Ao Ap"/><path d="M124.192 145.305l1 5h-3z" class="As At"/><path d="M271.192 146.305l2 1-7-1-1 3c3 0 7 1 9 3l-3 2-9-2-6-1 14 1-9-3-1-2 3 1 2-2z" class="BO BP"/><path d="M256.192 151.305l5-2 9 3z" class="Am An"/><path d="M103.192 150.305c3 3 6 8 10 8l-3-2a8 8 0 0 1 3-1v-2h10c-2 2-5 3-8 3l2 2-1 1c-3 1-6 1-8-1z" class="Ao Ap"/><path d="M218.192 152.305l10-2v4l-5-2-8 3 1 2-6-1-7-2c5-1 10 0 15-2z" fill="#f3ae77" stroke="#f3ae77"/><path d="M121.192 152.305h1l9 1-1 5c-1 2-4 3-3 6-2 0-2 1-2 2l-1 3-10-8 2-2 1-1-2-2c3 0 6-1 8-3h-3z" fill="#f3a058" stroke="#f3a058"/><path d="M262.192 152.305l9 2 4 1c17 3 33 8 48 16 6 2 11 6 16 11 3 1 4 4 5 7-6-8-14-15-23-18-16-7-33-13-51-15l7 4h-4a8 8 0 0 0-4 0l1-1c-2 0-4 0-4-2l2-1-2-1z" class="BC BD"/><path d="M206.192 156.305h4l6 1-1 1z" fill="#aa6629" stroke="#aa6629"/><path d="M261.192 156.305l3 1 3 3c4 3 9 5 10 9h-1l-8-4 1 1a19 19 0 0 0 5 1c-3-4-8-6-12-9z" class="Ag Ah"/><path d="M202.192 165.305c19-7 40-10 60-3l7 4-1-1c-11-6-23-6-35-6-10 0-19 3-29 7z" class="Ak Al"/><path d="M102.192 160.305v-2l1 2 5 3 1 1-7 6 2 2h1l-8-2c-16-5-34-6-51-2 18-7 37-3 55 1l4-5c-2-1-3-2-3-4z" fill="#111110" stroke="#111110"/><path d="M127.192 164.305c-1-3 2-4 3-6 0 3-1 6-3 8z" fill="#ab7451" stroke="#ab7451"/><path d="M132.192 158.305l2 5-1 3c-1-2-2-5-1-8z" class="As At"/><path d="M175.192 159.305l1-1-3 9c-2 0-2-1-2-3z" fill="#e1a87d" stroke="#e1a87d"/><path d="M204.192 166.305c10-4 19-7 29-7 12 0 24 0 35 6l8 4v2c-4-2-8-2-12-1l3 2 4 6-3 2-1 2 3 10-4-1-11-4 5 3 1 3 5 4h-11l-16-10h-4l-16-8h-12c-1-3-5-4-8-5 11-2 21-4 32-3l14 2c-7-3-16-3-24-3-9-2-17 0-26 2v-3z" fill="#f29e55" stroke="#f29e55"/><path d="M262.192 158.305c4 3 9 5 12 9a19 19 0 0 1-5-1l-7-4z" class="Au Av"/><path d="M273.192 160.305h4l-1 2-2 1h-1z" class="Ag Ah"/><path d="M274.192 163.305l2-1 4 4c-3 0-5-2-6-3z" fill="#555454" stroke="#555454"/><path d="M108.192 163.305h3c5-1 9 3 12 7l-3 4-11-1-5-1-2-2 7-6z" fill="#f59e58" stroke="#f59e58"/><path d="M168.192 164.305h3c0 2 0 3 2 3h1l-3 2-1-2-3-2-2 4-2 1z" class="Ak Al"/><path d="M181.192 166.305l5-3v3z" fill="#957e67" stroke="#957e67"/><path d="M125.192 166.305c0-1 0-2 2-2v2z" fill="#e4aa85" stroke="#e4aa85"/><path d="M127.192 171.305c0-2 1-4 3-5l1 1-2 3 4 1 1-3 1 1-1 6-2 3h1c-1 5 3 7 6 9 5 4 3 11 7 16-7 7-19 5-26-1l-2-2 2-3-2 2c-3-1-1-4 0-5h-3l5-3-5 1v-3l5-1h-6c0-3 3-2 5-2l-4-1 8-12c1-2 3-1 4-2zm38-2l2-4 3 2 1 2 3-2 2 2c4-3 9-1 12 1-2 2-6 1-9 2l-2-2v3c4-1 8 0 11-2l5 4a41 41 0 0 1-8 4l1 1 7-4 4 5-9 2 9-1v3l-9-1c3 2 6 1 9 1 2 3 2 5 1 8a45 45 0 0 0-10-2l10 2-2 5h-3l-6 7 1 2c-6 4-13 4-20 3-6-2-13-3-18-7-5-3-7-11-3-16 4-2 8-3 11-6v-6h2l-2-2 5-3z" class="BK BL"/><path d="M129.192 170.305l2-3 3 1-1 3z" fill="#c9c9c8" stroke="#c9c9c8"/><path d="M195.192 172.305c9-2 17-4 26-2-9 0-18 2-26 4l-3-3 3-2z" class="Ai Aj"/><path d="M264.192 170.305c4-1 8-1 12 1v-2h1c2 4 7 7 7 12l-5-6-11-5 5 4c4 3 9 7 9 12l-1 1c0-2-1-4-3-5-1-3-3-5-6-7l-5-3z" class="BQ BR"/><path d="M195.192 174.305c8-2 17-4 26-4 8 0 17 0 24 3l-14-2a104 104 0 0 0-36 4z" class="Ak Al"/><path d="M267.192 172.305l5 3c2 3 4 5 4 8h-1l-7-3 3-2z" fill="#f6ab6f" stroke="#f6ab6f"/><path d="M99.192 174.305c7-1 14 0 20 2l-5 6 1-5h1-17z" class="Au Av"/><path d="M146.192 175.305l6-1 2 1-9 4z" fill="#ad6d49" stroke="#ad6d49"/><path d="M195.192 175.305l4-1c3 1 7 2 8 5h-5l-6-2z" fill="#ba753a" stroke="#ba753a"/><path d="M76.192 181.305c7-3 16-4 23-4h17-1l-15 2-1 3a169 169 0 0 1 7-2l-3 2-6 2c-1-2 1-3 2-5z" fill="#210000" stroke="#210000"/><path d="M134.192 175.305l5 4c6 2 14-1 19-5l-1 5-12 7 2 1a63 63 0 0 1-5 0c-4-2-7-5-9-9h-1z" fill="#f49955" stroke="#f49955"/><path d="M272.192 175.305c3 2 5 4 6 7l1 3h-2l-2-2h1c0-3-2-5-4-8z" class="Aw Ax"/><path d="M196.192 177.305l6 2a26 26 0 0 1-4 0z" fill="#be8b67" stroke="#be8b67"/><path d="M100.192 179.305l15-2-1 5c-1 3-3 4-6 4h-5l3-3-4 1 1-2 3-2-7 2z" fill="#f5a359" stroke="#f5a359"/><path d="M133.192 178.305c2 4 5 7 9 9a63 63 0 0 0 5 0c-4 5-2 13 3 16 5 4 12 5 18 7 7 1 14 1 20-3 3-2 6-4 6-8l-1-1h3l2-5-10-2a45 45 0 0 1 10 2l-1 5v2c-4 5-8 11-14 13-6 1-12-1-18-1l-8 5c-4 1-8 0-10-3l-2-7-9 2c-5 1-9-1-14-3a48 48 0 0 1-3-3l1-1c7 6 19 8 26 0-4-4-2-11-7-15-3-2-7-4-6-9z" fill="#110d17" stroke="#110d17"/><path d="M198.192 180.305h3l-1 3 2 3-3-1z" fill="#deab83" stroke="#deab83"/><path d="M201.192 180.305c6-1 12-1 17 1 12 5 23 9 34 16l-1 1-7 3c-5-4-11-6-17-9-8-3-16-5-25-6l-2-3z" fill="#ee9e55" stroke="#ee9e55"/><path d="M267.192 182.305l1-2 7 3 2 2h2l1 2 2 4-2-1-8-6-2-1 6 15c9 4 18 8 25 13h-2l-23-11v10l-3-9h-1l-1-3-11-8-5-3 11 4 8 5z" fill="#202424" stroke="#202424"/><path d="M267.192 182.305l7 14-8-5 4 1z" class="Ai Aj"/><path d="M278.192 182.305c2 1 3 3 3 5h-1l-1-2z" fill="#f9f3f3" stroke="#f9f3f3"/><path d="M102.192 184.305l4-1-3 3-12 2-14 4c5-2 10-5 16-6z" class="BC BD"/><path d="M235.192 187.305h4l16 10h11l-5-4-1-3 11 8-1 1h-7c-4-1-8 0-11-3z" class="Ai Aj"/><path d="M281.192 187.305l1-1h1l1 10-4-6 2 1-2-4z" fill="#868688" stroke="#868688"/><path d="M105.192 189.305l9-3c-1 4-5 3-8 4h-1z" fill="#d5a47a" stroke="#d5a47a"/><path d="M200.192 186.305l3 1 2 8h-2l-3-2z" fill="#fdeee6" stroke="#fdeee6"/><path d="M203.192 187.305c12 1 24 5 34 11l11 9 1 9-2 1v5l-1 4 2-1 3 2-5 5c5-3 7-8 12-10l-1-1 1-7a79 79 0 0 0 1 9l3-1h3l-1 2 4 1 3 2-3 1 15-1c4 1 7 4 11 7l-2 1c-3-3-8-5-12-4 7 1 12 7 18 11a85 85 0 0 0-1-3l2-1 6 8a30 30 0 0 0-2 1l-2 2a60 60 0 0 0-2 0l1 1v3l-1 2-1 5c-2-1-4-4-6-3l-2-2 5 9c2 1 5 3 7 2l2-1a52 52 0 0 0 4 2h9l1-2v-3l-8-3 1-1v-4l1-1 2-1 5 4-2 1 3 1 7 6a51 51 0 0 0 4 7h-3l-4-4c2 3 4 5 7 4l-1 3c2 1 4 2 7 1l7 5 3 2h-1l6 5 2 4-1 4 1 3 1 1 1 4-7-4c2 4 6 6 10 8-2 2 2 3 3 3l1 1 7 12-12-3 1 2 3 6-1 5v1l6 9-4 5 3 4-1 12-1 8-2 3c0-3-1-6-3-8l2 9-3-2c-3-5-7-10-8-15l-1-9v7h-1l5 13c-1 3 0 5 1 8l-1 3-4-1c-1-3-3-6-6-8l-1 6-3-6-1-1-1-1-1 11c-3-2-4-7-6-10a77 77 0 0 0 1 4l-3 3-3-6 1 7h-2v2l-2-6-2-3c0 2 1 5-1 7-2-3-2-8-6-9-4-7-6-15-8-23l2-1 1-1a13 13 0 0 0 3-7l1 3v6c2 4 4 8 8 11l-2-2v-6l2-1a62 62 0 0 0 3 1c-5-4-11-7-12-14l-1-18 2-13-1-1v-2c-3 6-4 12-8 18v-19c3-3 4-9 7-13 2-2 5-4 6-7l6-3c-6 0-10 3-14 6l-1-4c-2 4-6 6-8 9 0 3 0 6-3 7l2 10v5l-5-7 1 5-1-1-4-7-2 3c0-6 2-13-1-19 0 7-2 15 0 22l3-2v8l-1 11-5-16c1 5 1 10 3 14l-2 4-2-5 1 3v11l-3-2 2 6-2 7v-2l-3 20-2 10 1-13-2 6-4 2-4-11 1 3-3-1c-1-3-1-7-3-10l-4-7 1 3-3 3c-2-3-4-7-8-9l-1-4-2-5c-1-1-1-3-3-3 0 6 2 12 5 17l5 4 2 3-2 1-3-4-5-1-3-3-4-11-2-9c0-7-1-13-3-20l6 3 3 1-5-5-2-7h11v-1c-2-2-4-3-5-6l-3-9 2 1h1l-5-12c0-2 2-3 4-4l5 7 1-3h2l-7-11 3 2 4 6 1-2 3 2c-1-4-4-6-6-9-2-2-5-4-6-7s0-6-2-9l6 2-4-2 3-5-3-4c3-2 5-3 6-6l2-2c0-6-4-11-7-16l-3 1-1-1 2 8-10-10c-7-5-16-9-24-12h2z" fill="#f19e55" stroke="#f19e55"/><path d="M105.192 192.305l9-2-8 4h-1l-1-2z" class="Ai Aj"/><path d="M98.192 195.305c0-2 3-3 5-2z" fill="#201714" stroke="#201714"/><path d="M105.192 198.305c1-4 6-4 9-5v1a62 62 0 0 0-9 4z" class="Ai Aj"/><path d="M105.192 198.305a62 62 0 0 1 9-3v1l-8 3z" class="Ak Al"/><path d="M199.192 196.305c2-1 5-1 6 1l-1 1v4c-2 1-4-1-5-2 3 3 7 5 9 9 2 3 3 7 3 10l-3-5v6l-4-4 1 7c-2-1-5-2-6-5l-1 5-3-2 1 4c-4 0-8-2-11-5l3 5-7-3v3l-5-4 1 2v2l1 1h-1v-2l-7 1-4-1 1 3h-8l-2-1-1 3c-3-3-7-4-11-6-2-2-2-6-5-7v4l-3-3-2 3-3-5c-2-3-5-6-10-6l-1-3h1c5 2 9 4 14 3l9-2 2 7c2 3 6 4 10 3l8-5c6 0 12 2 18 1 6-2 10-8 14-13v-2z" class="BK BL"/><path d="M106.192 199.305l8-3 2 3-9 4z" fill="#e19f5b" stroke="#e19f5b"/><path d="M252.192 196.305c3 3 7 2 11 3h7l1 3 1-1 2 4c-3-1-6-4-10-4l-7-1 9 8 15 6 2 2c-7-1-14-6-21-8l1 8c4-1 8-3 12-1l-5 2 10 1c-2 4-6 2-9 2h-6l3-2-9 1-1-5-1 7-2-3 1-4v-8h5c-3-3-5-8-10-8l1-1z" fill="#201714" stroke="#201714"/><path d="M187.192 205.305l6-7 1 1c0 4-3 6-6 8z" fill="#c1bdba" stroke="#c1bdba"/><path d="M205.192 197.305c11 3 20 9 27 18v2l-2-2-1 3-4 2v-7l-4-4-1-1v7l-4-4c3 5 7 9 7 14l-3-3-6-10h-1l-2 1c-1-4-4-7-6-10 0-2-2-5 0-6z" fill="#f09e55" stroke="#f09e55"/><path d="M244.192 201.305l7-3c5 0 7 5 10 9l-3-1-8-5 4 4-2 1z" fill="#fdf5ef" stroke="#fdf5ef"/><path d="M113.192 202.305l3-2 3 3 3 3h-1l-2 1 3 10-3-3-6-7c1 2 2 4 0 6l-2-6c1-2 3-3 2-5z" fill="#e79a56" stroke="#e79a56"/><path d="M250.192 201.305l9 5h-3v8-6c-1-2-3-1-5-2h1l2-1z" fill="#6a5c3f" stroke="#6a5c3f"/><path d="M108.192 204.305l5-2c1 2-1 3-2 5l-2 2z" fill="#ac714a" stroke="#ac714a"/><path d="M148.192 212.305l1-7 4 8z" fill="#442535" stroke="#442535"/><path d="M119.192 207.305l2-1 1 3 4 7 3-3v4l3 2v-4l3 5 2-3 3 3v-4c3 1 3 5 5 7 4 2 8 3 11 6l1-3 2 1h2l5 1c-2 1-2 3-4 3-2 1-2-1-2-2-3 1-8 3-10-1l-7 3c-6 2-11 7-16 11 0 3-3 5-5 7l-5 5h-2v-1l11-11-4 1 1-3 4-1 4-2h-3l8-5h-4l-1-1c-3 1-5 3-6 6l-1 1-4 5-7 2h-1l10-7v-1l-3-1c3-2 7-3 9-6l-10-1c3 0 7-1 9-3s0-3-1-4l-2-3v3c-3-2-5-5-6-8h1l3 3z" fill="#15141c" stroke="#15141c"/><path d="M251.192 206.305c2 1 4 0 5 2v6l-1 4c0-4-2-8-4-12z" fill="#fff7dd" stroke="#fff7dd"/><path d="M220.192 208.305l1 1 4 4v7l1 2-1-1-5-6z" fill="#fbb97d" stroke="#fbb97d"/><path d="M248.192 207.305c4 2 5 7 5 11l-1-1z" class="Ai Aj"/><path d="M122.192 209.305c5 0 8 3 10 6v4l-3-2v-4l-3 3z" fill="#eee5dc" stroke="#eee5dc"/><path d="M236.192 210.305l3-1v1l1 6c1 4-1 7-2 11 3-2 5-4 6-7l-1 5-6 6 7-4c-1 3-3 4-6 6l3 4-3 5-7-7v-8l-2-2h2l5 1h1c2-5 1-11-1-16z" fill="#de985f" stroke="#de985f"/><path d="M240.192 216.305l-1-6c3 4 7 9 7 15l-2 2-7 4 6-6 1-5c-1 3-3 5-6 7 1-4 3-7 2-11z" fill="#2f1608" stroke="#2f1608"/><path d="M299.192 211.305h2c10 6 19 13 27 21 3 2 5 6 8 7h-2v2l-1-3-20-17z" class="Am An"/><path d="M148.192 213.305h11c-3 3-8 3-11-1z" class="Aw Ax"/><path d="M211.192 213.305l2-1c3 3 4 7 6 11l-6-4z" class="Au Av"/><path d="M201.192 214.305c2 1 2 1 1 3z" fill="#8d8a83" stroke="#8d8a83"/><path d="M144.192 215.305c3 0-1 3 0 0z" fill="#b3adac" stroke="#b3adac"/><path d="M230.192 215.305l2 2v-2l2 2v1c-2 2-1 5 1 6l-1-4 2-1v7l-5-1 2-1-1-2c0-2-1-4-3-4z" fill="#905c3a" stroke="#905c3a"/><path d="M249.192 216.305l1 2 2-1 1 1c2 3-1 6-2 9l-3-2 2-7-3 4v-5z" fill="#8e5637" stroke="#8e5637"/><path d="M234.192 217.305l2 2-2 1z" fill="#a78e7e" stroke="#a78e7e"/><path d="M179.192 218.305c2 0 4 1 4 3-2 1-4-1-4-3z" fill="#cac9c5" stroke="#cac9c5"/><path d="M225.192 220.305l4-2c2 0 3 2 3 4l1 2-2 1h-2v-3h-3z" fill="#75482b" stroke="#75482b"/><path d="M235.192 224.305c-2-1-3-4-1-6v2z" fill="#623313" stroke="#623313"/><path d="M259.192 219.305l9-1-3 2h1l-4 2-3 1z" fill="#975530" stroke="#975530"/><path d="M247.192 222.305l3-4-2 7-2 1z" fill="#491f09" stroke="#491f09"/><path d="M129.192 220.305l1 2h3c0 2-1 3-3 3z" class="Ay Az"/><path d="M266.192 220.305h5l3 2-2 1-3 2h-1l-4-1 1-2h-3z" fill="#ce7d48" stroke="#ce7d48"/><path d="M210.192 221.305c5 4 11 5 16 9v5l-5-3 5 12c-4-3-6-8-10-10l5 12-7-10-8-5h3l-3-2 2-1c3 0 5 3 8 4l-6-8 4 2z" class="BO BP"/><path d="M275.192 222.305c5-2 10 0 15-1l-7 3c7 2 13 7 21 8l-7 1c-5-3-10-7-16-9-4-1-8 0-12 1a38 38 0 0 0 3-2z" fill="#0e0906" stroke="#0e0906"/><path d="M225.192 223.305l6 5v7l-7-7z" fill="#a98367" stroke="#a98367"/><path d="M166.192 224.305l4 1h-2l2 2c-2 0-4 1-4 3h7l3-2-2 1-1 7-3 2 3-7h-6l-2-1c1 3 1 7-1 9v-7l-7-1c-5-1-9 2-14 0l7-3c2 4 7 2 10 1 0 1 0 3 2 2 2 0 2-2 4-3l-5-1h6z" fill="#695c51" stroke="#695c51"/><path d="M269.192 225.305c4-1 8-2 12-1l16 9 1 1 5 6 12 12h-1l-2 1-1 1-1-2-1-3-4-3-6-8-2 1-5-4 2-1c-4-3-7-6-11-7l-15 1 3-1-3-2z" fill="#f0a461" stroke="#f0a461"/><path d="M128.192 229.305c2-2 4-4 7-4-2 3-4 4-7 4z" class="Au Av"/><path d="M168.192 225.305h2l7-1v2h1l-1-1 3 2-4 1-3 2h-7c0-2 2-3 4-3z" fill="#181621" stroke="#181621"/><path d="M132.192 231.305c2-2 3-4 5-4l8 2c-5-1-8 2-13 2z" fill="#a67660" stroke="#a67660"/><path d="M201.192 226.305l6 1 1 1-2 1 3 2h-3l-1-1v1z" fill="#776767" stroke="#776767"/><path d="M176.192 228.305l4-1h3v7-3l-1 1-8 6-1-2 1-7z" fill="#ad997c" stroke="#ad997c"/><path d="M183.192 227.305l8 2v-2l2 3h6l-2 4-6-1-2 2h-3l-3 1z" class="Aw Ax"/><path d="M71.192 272.305c-5-13-6-29 0-42l1 2c-5 13-5 27-1 40z" fill="#262626" stroke="#262626"/><path d="M165.192 230.305l2 1h6l-3 7 3-2 1 2 1 1c3-1 6-4 7-7l1-1v5l3-1h2l-2 3v1c-4-1-8 0-11 3-4 4-8 7-13 8l8-7-11 5c-2 0-2 2-3 3l-1-2-7 7 2-9-5 5 2-6c-3 1-4 4-6 6l-5 1 5-7v-3l-1 2-4 2-9-5c5-4 10-9 16-11 5 2 9-1 14 0l7 1v7c2-2 2-6 1-9z" fill="#bba285" stroke="#bba285"/><path d="M205.192 230.305l1 1 8 5 7 10-5-12c4 2 6 7 10 10l-5-12 5 3v-5c3 4 6 9 10 12 2 3 1 6 2 9s4 5 6 7l-2 3-3-2 7 11h-2c-6-6-13-9-18-16 1 3 3 6 6 8l-1 2 3 6 5 12h-2c-2-9-10-15-14-23l5 8c4 4 5 10 8 14l3 9c1 3 3 4 5 6v1h-1c-4-1-8-3-10-7v1l-3-4 2 3-2 1-3-4 2 6v6l-4-5 2 5 5 15-1 5-4-12c1 5 3 10 3 16l-4-4 1 11c0 3 2 6 3 8l-2 4-2-2-2 3v-3l-2 2-2-2-1 4-4-2-5 12v-9l-2-1-2 6v-9l-4 12-5 6-4-5 3 7c-2 2-5 0-6-2-4-4-7-10-10-15-2-5-2-11-3-16l-1 5-2 13-1-4-2-2-2 4-2-1-2-9c0 3 0 7-2 8-4-2-3-7-3-10l-2 5c-3-8-1-17 2-25-4 6-5 13-4 20l-3-4-1 13c-4-4-5-10-6-15-3-9 1-19 7-26l-1 5 5-9 1-1 1-3-5 6v-3a141 141 0 0 1-2 5c-3 4-6 8-7 13-2 7-2 14-1 21-2-7-6-14-5-22 1-7 6-13 9-19a24 24 0 0 0 0-1c-5 6-9 12-11 20v1l-2-3c1-6 5-11 9-16l-3 1 5-9-7 11c-3 3-5 7-9 9l1-6 1-4c2-3 5-6 2-9l9-11-9 10-1-1 9-11v-3l1-5-9 12a128 128 0 0 0-5 0l4-6c2-4 6-7 9-10l-9 5-3-1a78 78 0 0 0 11-14c2-2 3-5 6-6l-2 6 5-5-2 9 7-7 1 2c1-1 1-3 3-3l11-5-8 7c5-1 9-4 13-8 3-3 7-4 11-3 4 6 4 14 6 22l-2 1h-2 2c-4 8-5 16-5 24v3l1-1v-1c2 3 2 8 5 11v-3c1 0 2 1 2 3l4 3c-2-4-5-7-6-11v-4l-3 2v-2l-2-1v-6l4-16h1c1 6 0 12 2 17l-1-7 2 1v12l1-10-1-11-1 1c0-7-3-13-3-19l6 2 2 4c1-3-1-7 1-10 0 5 0 9 2 13 1-6 1-12-2-17v-2l3 7c0-4-2-8-1-12l3 5v-4 3c4 1 5 6 6 10h2c-2-5-4-11-7-15z" class="BK BL"/><path d="M280.192 231.305c4-1 9 1 12 4l5 4a85 85 0 0 1 1 3c-6-4-11-10-18-11z" fill="#b4682a" stroke="#b4682a"/><path d="M125.192 237.305c1-3 3-5 6-6l1 1h4l-8 5h3l-4 2z" class="BI BJ"/><path d="M197.192 234.305l2-4 2 2 1 12-3-7v2l-4-2 1 12-6-2-1-12 2-2z" fill="#b8a587" stroke="#b8a587"/><path d="M232.192 230.305c3 3 6 5 7 8-4 0-6-4-7-8z" fill="#fee2c5" stroke="#fee2c5"/><path d="M174.192 238.305l8-6c-1 3-4 6-7 7z" fill="#d1bda1" stroke="#d1bda1"/><path d="M304.192 232.305h1l-5 3-2-1-1-1z" fill="#a5a29a" stroke="#a5a29a"/><path d="M268.192 235.305c6 0 11 3 15 6v-4c1 1 3 2 3 4l-2 2 1-2-5-2z" class="Ag Ah"/><path d="M298.192 234.305l2 1c2 0 3 2 5 3l8-2c-1 3-5 4-7 5 5 4 9 9 15 11h8l-1 1c-4 4-9 1-13-1l-12-12z" fill="#1a1314" stroke="#1a1314"/><path d="M188.192 235.305h1l1 12c0 6 3 12 3 19l1-1 1 11-1 10v-12l-2-1 1 7c-2-5-1-11-2-17h-1l-4 16-1 7c0-8 1-16 5-24h-2 2l2-1c-2-8-2-16-6-22v-1a47 47 0 0 1 2-3z" class="BC BD"/><path d="M195.192 237.305l4 2c3 5 3 11 2 17-2-4-2-8-2-13-2 3 0 7-1 10l-2-4z" fill="#99928a" stroke="#99928a"/><path d="M127.192 242.305l9 5 4-2-8 10-5 1-2-4c4-1 6-3 9-6-3 3-7 4-11 5l-1-2c2-2 5-4 5-7z" fill="#d1843e" stroke="#d1843e"/><path d="M140.192 245.305l1-2v3l-5 7-3 2c-4 4-8 7-13 9-2 2-5 4-5 7-2 4-6 9-11 10 4 0 7-1 10-3l3-5a39 39 0 0 1 3-3l6-2-5 4c-4 3-6 9-8 13l-6 3v1l-1 1-7 1v-1c-4 0-9-1-12-5 8 3 16 3 23-1l2-3c-4 3-9 1-13-1l7-1 4-4 5-6-4 2 1-2c3-4 7-7 11-8s7-3 9-6z" class="BQ BR"/><path d="M229.192 244.305c1-1 4 0 4 2-1 0-4 0-4-2z" fill="#ddd6cb" stroke="#ddd6cb"/><path d="M123.192 251.305c4-1 8-2 11-5-3 3-5 5-9 6l-1 1-1 1-11 12c0-4 5-7 6-12z" class="Am An"/><path d="M211.192 246.305c1 0 2 2 1 3-1 0-2-2-1-3z" class="BQ BR"/><path d="M303.192 247.305l2-1 4 3 1 3-3 1z" fill="#e28e4a" stroke="#e28e4a"/><path d="M301.192 249.305l2-2 4 6 3-1 1 2v4l-5-3h1z" fill="#d29264" stroke="#d29264"/><path d="M299.192 249.305h2l6 6h-2l-5-5z" class="Ak Al"/><path d="M212.192 250.305l4 8c-1 2-2 5 0 7 1 1 0 3-1 4l-4-17z" fill="#0c0a0b" stroke="#0c0a0b"/><path d="M300.192 253.305v-3l5 5 1 5-5-3-2-2z" fill="#e2a16f" stroke="#e2a16f"/><path d="M136.192 253.305l5-1-6 9v-1h-2v-5z" fill="#f7d7be" stroke="#f7d7be"/><path d="M124.192 253.305l1-1 2 4 5-1c-2 3-5 5-9 6l-2-1 3-4z" fill="#d7935f" stroke="#d7935f"/><path d="M232.192 262.305c-3-2-5-5-6-8 5 7 12 10 18 16l-1 3-5-7z" class="Ag Ah"/><path d="M282.192 254.305c4 2 7 7 8 11z" fill="#d38542" stroke="#d38542"/><path d="M115.192 255.305h2l-5 5c1-2 1-4 3-5z" class="Am An"/><path d="M290.192 255.305l2 2c3 4 6 7 10 9-2 1-5-1-7-2z" class="Ag Ah"/><path d="M299.192 255.305l2 2c3 4 7 8 12 7l3 1h2l-1 2h-9c-2-3-5-4-7-5v1l-3-3z" fill="#d08b54" stroke="#d08b54"/><path d="M306.192 260.305l-1-5h1l5 3-1 1-1 1 7 5-3-1z" class="As At"/><path d="M120.192 264.305c5-2 9-5 13-9v5h2v1l-5 5-4 2-6 2-1-2z" fill="#e79553" stroke="#e79553"/><path d="M292.192 257.305c2-1 4 2 6 3l3 3 3 2-2 1c-4-2-7-5-10-9z" class="Ai Aj"/><path d="M317.192 257.305l2-1 9 3 14 5-6 1c1 2 3 1 4 2l12 6-9-3-7-2-9-4c3 0 6 2 9 1l-2-1-14-6z" class="Am An"/><path d="M301.192 257.305l5 3 7 4c-5 1-9-3-12-7z" class="Ag Ah"/><path d="M216.192 258.305v7c-2-2-1-5 0-7z" fill="#5b595b" stroke="#5b595b"/><path d="M244.192 258.305c2 3 5 5 6 9l-3-2-1 2-4-6z" fill="#f6cb9e" stroke="#f6cb9e"/><path d="M320.192 258.305l14 6 2 1c-3 1-6-1-9-1z" fill="#fffaea" stroke="#fffaea"/><path d="M223.192 259.305c4 8 12 14 15 23l-2-1c-3-4-4-10-8-14z" class="BA BB"/><path d="M309.192 260.305l1-1 8 3v3h-2z" fill="#b36838" stroke="#b36838"/><path d="M133.192 267.305l9-5c-3 3-7 6-9 10l1-2h-1z" class="Ak Al"/><path d="M232.192 262.305l6 4c-2 1-4 2-4 4l-3-6z" fill="#dfa670" stroke="#dfa670"/><path d="M301.192 262.305c2 1 5 2 7 5l-4-2-3-2v-2z" fill="#ad6633" stroke="#ad6633"/><path d="M115.192 271.305c0-3 3-5 5-7l-1 4 1 2a39 39 0 0 0-3 3l1-1z" fill="#cb9e81" stroke="#cb9e81"/><path d="M327.192 264.305l9 4v3h-5a51 51 0 0 1-4-7z" fill="#e3aa82" stroke="#e3aa82"/><path d="M126.192 268.305l4-2 3 1v3l-12 3v-1z" fill="#f0bc85" stroke="#f0bc85"/><path d="M134.192 278.305l9-12-1 5v2l-4 5z" fill="#dec6af" stroke="#dec6af"/><path d="M324.192 267.305l4 4h8c8 2 15 5 22 9l3 4v1c-5-4-11-8-17-10l-5-1-8-2c-3 0-5-2-7-5z" class="Am An"/><path d="M192.192 268.305h1c0 1 1 5-1 5a19 19 0 0 1 0-5z" class="BK BL"/><path d="M110.192 275.305c1-2 0-5 2-6l-1 2 4-2z" fill="#797376" stroke="#797376"/><path d="M121.192 273.305l12-3h1l-1 2-4 6h5 4c-3 4-7 7-9 12l-7 14 2-10 2-9-3 3-1-4-1-2z" fill="#f09f55" stroke="#f09f55"/><path d="M289.192 269.305c2 2 1 4 1 6 0 3 1 6-1 8z" fill="#cb7e3b" stroke="#cb7e3b"/><path d="M115.192 271.305l3 1-1 1-3 5c-3 2-6 3-10 3 6-1 9-6 11-10z" fill="#f9f9f9" stroke="#f9f9f9"/><path d="M142.192 271.305v3l-9 11c-2 2-4 4-4 6l5-5-1-1 1 1 9-10-9 11-4 4c-2 1-4 4-4 6-1 5-3 9-3 14 2 7 0 15 0 22-2 6-4 13-8 18 4-9 7-19 7-29 0-8-2-16-1-24l-1-1c-4 2-7 5-9 8l-2 3-1-1 6-6c2-3 5-4 6-7l1 1v1l3-3v1l-2 10 7-14c2-5 6-8 9-12l4-5z" fill="#1f0c00" stroke="#1f0c00"/><path d="M113.192 285.305c2-4 4-10 8-13v10l-5 4a106 106 0 0 1-3-1z" fill="#fff8e9" stroke="#fff8e9"/><path d="M196.192 272.305c3 4 3 9 4 14 3 9 8 16 13 25l2-7c2 3 0 8 3 10l-1 4-2-7-3 4c-4-14-16-27-16-43z" fill="#5b5a58" stroke="#5b5a58"/><path d="M331.192 272.305l8 2-2 1c-3 1-5 0-7-1l1-3z" fill="#c68350" stroke="#c68350"/><path d="M339.192 274.305l5 1-3 1 3 4-7-5z" class="Ai Aj"/><path d="M308.192 284.305c4-3 8-6 14-6l-6 3c-6 3-11 10-13 17 0-5 1-10 5-14z" class="Ag Ah"/><path d="M185.192 286.305l1-7v6l2 1v2c0 2 0 5 2 6l1-4c1 4 4 7 6 11l-4-3c0-2-1-3-2-3v3c-3-3-3-8-5-11v1l-1 1z" class="BA BB"/><path d="M299.192 289.305c2-3 6-5 8-9l1 4c-4 4-5 9-5 14 2-7 7-14 13-17-1 3-4 5-6 7-3 4-4 10-7 13v8l-2-6-3-6z" fill="#e39256" stroke="#e39256"/><path d="M348.192 281.305c6 0 10 4 14 7-6 0-10-4-14-7z" class="Am An"/><path d="M116.192 286.305l5-4 1 2-5 5c-2 2-5 4-4 7l4-2c-3 4-8 6-9 11v-1-2c2-2 3-5 3-8l1-1z" fill="#190e0a" stroke="#190e0a"/><path d="M346.192 282.305h1l4 3c7 4 15 7 19 15l-16-11c7 7 15 13 19 22l-11-10c-3-2-6-3-8-6l6 3c-2-3-5-4-6-7l-2-4z" fill="#161513" stroke="#161513"/><path d="M107.192 288.305l6-3 3 1-4 7-1 1-4 3-4-1 6-8-2 1z" fill="#e08f4f" stroke="#e08f4f"/><path d="M117.192 289.305l5-5 1 4-1 1-5 4z" class="BE BF"/><path d="M123.192 288.305l3-3-2 9v-1l-3 3v-1l-1-1 2-5z" fill="#cb7544" stroke="#cb7544"/><path d="M133.192 285.305l1 1-5 5c0-2 2-4 4-6z" fill="#e3be9d" stroke="#e3be9d"/><path d="M139.192 297.305l7-11-5 9 3-1c-4 5-8 10-9 16-2-5 2-9 4-13z" class="Ak Al"/><path d="M188.192 288.305l3-2v4l-1 4c-2-1-2-4-2-6z" class="Aw Ax"/><path d="M286.192 285.305c3 6 1 13 1 19l2-3 4 7v5l-2-3v1l-1 3h-1v-9l-3 2c-2-7 0-15 0-22z" fill="#c8874f" stroke="#c8874f"/><path d="M230.192 287.305l3 4v-1c-1 2-2 4 0 5-2 0-3-2-3-4l2-1z" class="Am An"/><path d="M107.192 289.305l2-1a157 157 0 0 1-17 17l-3 5 13-5 2-1-1 2-3 5c-3 8-8 16-9 25-2-1-1-3-1-5 2-8 6-15 10-23l-13 5-1 1c0-5 4-9 8-12l10-10c-4 1-9 3-13 2l8-3 7-1z" fill="#11110f" stroke="#11110f"/><path d="M130.192 291.305l4-4c3 3 0 6-2 9l-1-2z" fill="#e1ab7a" stroke="#e1ab7a"/><path d="M220.192 288.305c3 11 1 23-2 34a18 18 0 0 1-1-4l1-4c3-8 2-17 2-26z" fill="#060402" stroke="#060402"/><path d="M227.192 287.305l3 4c0 2 1 4 3 4-2-1-1-3 0-5 2 4 6 6 10 7h-10l-4-4z" class="Aw Ax"/><path d="M113.192 296.305c-1-3 2-5 4-7v4l1 1h-1z" fill="#8c7a75" stroke="#8c7a75"/><path d="M117.192 293.305l5-4-2 5c-1 3-4 4-6 7l-6 6v-2c1-5 6-7 9-11h1z" fill="#c7936d" stroke="#c7936d"/><path d="M299.192 289.305l-1 8 3 6-1 7-2-4-2-10c3-1 3-4 3-7z" fill="#503428" stroke="#503428"/><path d="M126.192 297.305c0-2 2-5 4-6l1 3-2 10 2-4-1 6c4-2 6-6 9-9-2 4-6 8-4 13l2 3v7c-1 4-2 7-1 11l-4-9-2 2-3-7-1 6-1-16c1-3 2-6 1-10z" fill="#ef9c53" stroke="#ef9c53"/><path d="M148.192 292.305v1c-3 6-8 12-9 19-1 8 3 15 5 22-1-7-1-14 1-21 1-5 4-9 7-13a141 141 0 0 0 2-5v3l5-6-1 3-1 1-5 9 1-5c-6 7-10 17-7 26 1 5 2 11 6 15l7 10v-3l6 7-2-6c5 4 8 10 11 15-2-3-6-5-10-7l-3 5-1-1c0-5-4-8-7-12l-1 8c0-5-1-9-4-13l-1 4-1-5c-2-5-5-9-5-14l-1-2h-2l-1-15c2-8 6-14 11-20z" fill="#1b191d" stroke="#1b191d"/><path d="M229.192 293.305l4 4 2 7-6-5z" class="As At"/><path d="M107.192 297.305l4-3c0 3-1 6-3 8l-6 3-13 5 3-5c3 3 5 0 7-1z" fill="#f7f0e4" stroke="#f7f0e4"/><path d="M131.192 294.305l1 2-1 4-2 4z" fill="#af693b" stroke="#af693b"/><path d="M225.192 294.305l4 4 6 6 5 5-3-1-10-9z" class="Ak Al"/><path d="M98.192 301.305l5-5 4 1-8 7v-4z" fill="#bf8557" stroke="#bf8557"/><path d="M111.192 305.305c2-3 5-6 9-8l1 1c-1 8 1 16 1 24 0 10-3 20-7 29 4-5 6-12 8-18 0-7 2-15 0-22 0-5 2-9 3-14 1 4 0 7-1 10l1 16-1 11c0 6-4 11-5 17l5-8 1 12-2 11 5-11 2 3 1 2 2-3v8l4 7v2l-1 2-3-1v10l-5-11-1 8-7-13v3l-1-5v-5l-4-2v2c-1 5 0 11 2 16-5-2-6-7-8-11-1-3 0-6 1-9l-1 3-3-1-2 2-1-8c1-4 2-8 0-12 1-7 5-12 9-17l5-12-2 2-1-2-5 1 5-3-1-1z" fill="#b79e7e" stroke="#b79e7e"/><path d="M156.192 307.305c-1-4 0-7 2-10z" class="BS BT"/><path d="M354.192 298.305c7 4 12 9 17 15l4 5-13-11-3-2-4-6z" class="Am An"/><path d="M227.192 299.305l10 9-6-3c2 7 3 13 3 20l2 9v1h-2l-2-1c0-5 1-10-1-15l1-5z" fill="#e4a674" stroke="#e4a674"/><path d="M349.192 299.305l7 4-1-4 4 6 3 2 1 3h-1c0-2-2-3-3-3-4-2-8-4-10-8z" class="As At"/><path d="M92.192 305.305l6-4 1-1v4c-2 1-4 4-7 1z" fill="#c59975" stroke="#c59975"/><path d="M102.192 305.305l6-3v2l-2 2h-3l1-2z" fill="#9f8876" stroke="#9f8876"/><path d="M303.192 320.305c4-6 5-12 8-18v2c-3 9-3 18-2 27l-1 14-1 1-1-11-1 7-1-7 2-1 1-18-4 14z" fill="#1c0000" stroke="#1c0000"/><path d="M301.192 303.305l2 6v21l1 5 1 7v5c2 8 4 16 8 23 2 5 2 10 2 15-5-13-12-26-13-40-3-11-4-23-2-35z" fill="#f9f3ef" stroke="#f9f3ef"/><path d="M106.192 306.305l2-2v3l1 1-6 6v-2l1-3-1-1z" fill="#bd6b34" stroke="#bd6b34"/><path d="M294.192 309.305l-1-5 5 7v-5l2 4c-2 12-1 24 2 35 1 14 8 27 13 40 1 3 3 4 5 5l-2-5 1-3 3 8 6 1 10 5c-9-4-19-4-28-6s-17 0-26 1v-2c-2-5 1-9 2-14l2-9c-1 8-2 17 5 22-1-5-2-11-1-16l3 12c0 2 1 3 2 3l-3-18c0 6 3 11 5 16l-3-15c3 5 3 10 6 14l1 2 1-4 5 3h5l-3-4c-3-8-8-16-9-24l-3-12-3-29-1-1z" fill="#111017" stroke="#111017"/><path d="M311.192 304.305l1 1-2 13 1 18v2a13 13 0 0 1-3 7l1-14c-1-9-1-18 2-27z" fill="#df9f6a" stroke="#df9f6a"/><path d="M103.192 306.305h3l-3 2 1 1-1 3-6 12c-2 3-4 7-4 11l-2 1c1-9 6-17 9-25z" fill="#fff8e8" stroke="#fff8e8"/><path d="M109.192 308.305l2-3 3 5c-5 4-13 8-14 15l-3-1 6-12v2z" fill="#ea9857" stroke="#ea9857"/><path d="M227.192 307.305l4 12c2 5 1 10 1 15s-2 10-3 14l-5 9 5-1-11 8-1-4c4-5 9-11 11-18l2-4c2-5 1-10 0-15 0-6-2-11-3-16z" fill="#24201f" stroke="#24201f"/><path d="M362.192 310.305c-1 0-5-1-3-3 1 0 3 1 3 3z" class="Ag Ah"/><path d="M283.192 308.305l5 16c3 8 4 17 5 25l2 11c-2-4-3-9-6-13-2-3-3-7-6-10 3 8 3 16 0 23l-7 16-1-2 2-10 3-20v17a39 39 0 0 0 0-28l3 2 1 2 7 9c-1-8-6-14-8-22l-1-3 2 5 6 11-4-15c-2-4-2-9-3-14z" fill="#291f1d" stroke="#291f1d"/><path d="M293.192 308.305l1 1 1 6 1 1 3 29-1 12-1 6 3-4 1 5v-6l1-1c1 8 6 16 9 24v1l-3-3 1 6-5-3-1 4-1-2c-3-4-3-9-6-14l3 15c-2-5-5-10-5-16l3 18c-1 0-2-1-2-3l-3-12c-1 5 0 11 1 16-7-5-6-14-5-22l-2 9c-1 5-4 9-2 14-3-5-1-10 0-15-2 4-4 8-4 13 0-4-1-8-3-11l-2 11c-1-4 0-8 1-11l7-16c3-7 3-15 0-23 3 3 4 7 6 10 3 4 4 9 6 13l-2-11c-1-8-2-17-5-25l1-10 1 13c4-5 2-11 1-16v-1l2 3z" fill="#b8a286" stroke="#b8a286"/><path d="M100.192 325.305c1-7 9-11 14-15l1 1-5 3-8 7-1 2v5l-1 3-2-1 2-2z" class="Ag Ah"/><path d="M251.192 309.305l4 9 1 6c-2-5-5-9-5-15z" fill="#a15b24" stroke="#a15b24"/><path d="M363.192 311.305c1-1 3 1 3 2 3 2 4 5 5 8l5 7c-6-1-11-5-17-6l-1-2 12 3z" fill="#7c5830" stroke="#7c5830"/><path d="M137.192 313.305v-1l1 15h1v11l-2-2c0 2 0 4-2 5l-3-7v2c-1-4 0-8-2-12l2-2 4 9 1 2z" class="BG BH"/><path d="M156.192 332.305c-1-7 0-14 4-20-3 8-5 17-2 25v7z" class="BA BB"/><path d="M290.192 314.305l1-3c1 5 3 11-1 16z" fill="#2f200f" stroke="#2f200f"/><path d="M330.192 312.305c4 6 10 11 12 18z" class="Ag Ah"/><path d="M110.192 314.305l5-1 1 2-4 5-1 1h-1c-3-2-5 1-6 3l-3-1 1-2z" fill="#db8a44" stroke="#db8a44"/><path d="M116.192 315.305l2-2-5 12c-4 5-8 10-9 17v1c-1-2-1-5 1-8l7-15z" class="Ag Ah"/><path d="M166.192 315.305c3 3 1 8 1 11l-2-7-1 5 1-5h1z" class="Aq Ar"/><path d="M307.192 316.305l-1 18-2 1-1-5z" fill="#bb7d54" stroke="#bb7d54"/><path d="M127.192 317.305l3 7c2 4 1 8 2 12-1 7-1 13-3 19l-5 11 2-11-1-12-5 8c1-6 5-11 5-17l1-11z" fill="#181416" stroke="#181416"/><path d="M268.192 318.305c1 4 4 7 3 11l-3-4c-1 10 3 21 2 31-2-10-3-21-2-32l1-1z" class="Ag Ah"/><path d="M226.192 319.305l4 4c1 5 2 10 0 15-1-2-3-5-3-8z" class="Ai Aj"/><path d="M104.192 324.305c1-2 3-5 6-3l-5 5-4 2v-5z" fill="#e9a56d" stroke="#e9a56d"/><path d="M111.192 321.305l1-1-7 15c-2 3-2 6-1 8l-3 10v-3l-1-1c-4-1-3 3-3 5-2-4 1-8 2-12l-3 4-1-3 1-2 5-4z" class="Au Av"/><path d="M110.192 321.305h1l-10 16v-2l4-9z" fill="#845526" stroke="#845526"/><path d="M136.192 331.305c-1-4 0-7 1-11v13z" fill="#f0ad77" stroke="#f0ad77"/><path d="M284.192 326.305l2-4 4 15z" class="Ai Aj"/><path d="M97.192 324.305l3 1v3l-2 2-5 5c0-4 2-8 4-11z" fill="#cc8358" stroke="#cc8358"/><path d="M167.192 330.305c-1-3 1-5 2-7 0 2 0 5-2 7z" fill="#1b191d" stroke="#1b191d"/><path d="M350.192 324.305c6 6 7 15 6 22l-1 1 1 3c-4-3-8-8-9-14l2 5 5 4-1-7-3-5h1c1 2 1 4 4 5-1-5-1-10-5-14z" fill="#332109" stroke="#332109"/><path d="M283.192 324.305c2 8 7 14 8 22l-7-9-1-2z" class="Ai Aj"/><path d="M101.192 328.305l4-2-4 9c-1 1-2 3-4 3l3-7z" class="BE BF"/><path d="M367.192 326.305l11 5-9-2c2 3 3 6 3 10-1-4-6-8-5-13z" class="BC BD"/><path d="M139.192 327.305h1l1 2-2 2z" fill="#f4f4eb" stroke="#f4f4eb"/><path d="M153.192 328.305l3 4 2 12 1 4v3l-7-10z" fill="#d2c5af" stroke="#d2c5af"/><path d="M177.192 328.305c1 5 1 11 3 16l-1 1-1-2-1-6-1-4z" class="BA BB"/><path d="M241.192 328.305c2 0 2 2 3 3l2 14c-3-5-5-11-5-17z" fill="#2d0000" stroke="#2d0000"/><path d="M361.192 333.305l1-5 2 3 1 1c2 6 6 11 5 18-2-6-4-12-9-16z" fill="#bf8c60" stroke="#bf8c60"/><path d="M141.192 329.305c0 5 3 9 5 14-2 1-1 3-2 5v1l-2-6c-2 1-2 3-3 5v-17z" class="Ay Az"/><path d="M93.192 335.305l5-5 2 1-3 7-1 3-1 2c-1 4-2 9-1 14l2-11 3-4c-1 4-4 8-2 12 0-2-1-6 3-5l-2 13v10l1-12 1 2v15c-2-1-2-3-3-5l-1-16c-3 2-1 6-3 9-3-10-1-21 3-30l-2 1h-2z" fill="#121011" stroke="#121011"/><path d="M128.192 347.305c-2-5 0-11 1-17 1 6 0 11-1 17z" class="Ay Az"/><path d="M89.192 348.305c-1-6 0-11 1-17 0 2-1 4 1 5l2-1-1 1h2c-3 3-4 8-5 12z" fill="#5c5454" stroke="#5c5454"/><path d="M364.192 331.305l2 1c6 8 7 17 7 27l-1-3-2-3 1 14 3 18-4-5c-2-2-4-5-4-8l5 6c-3-8-1-18-5-26l-3-4 4 2v-7l-6-9c5 4 7 10 9 16 1-7-3-12-5-18z" class="BS BT"/><path d="M158.192 337.305l2-5c0 3-1 8 3 10 2-1 2-5 2-8l2 9c1 3 3 6 6 8-1-3-3-7 0-9l1 4 2-12 1 3-1 7 2-1 1 2 1-1c3 6 6 11 10 15 1 2 4 4 6 2l-3-7 4 5 5-6 4-12v9l2-6 2 1v9l5-12 4 2 1-4 2 2 2-2v3l2-3 2 2c-2 7-7 13-11 18l-1-1-1-6-2 9-1 1-1-8c-1 7-4 13-6 19h-6l2 3h-5l3 3-7-4 3 5c-8-6-12-16-18-23l3 7 1 3-5-5-1 2-1-1c-3-5-6-11-11-15l2 6-6-7-1-4z" fill="#bba68a" stroke="#bba68a"/><path d="M244.192 331.305l2 5c0 4 2 9 5 13l-5-4z" class="Ai Aj"/><path d="M132.192 336.305v-2l3 7 2 1v4l-3 5-3 7-2-3c2-6 2-12 3-19z" fill="#f9f3f3" stroke="#f9f3f3"/><path d="M232.192 334.305l2 1-1 4 2-2-1 4-5 7c1-4 3-9 3-14z" fill="#9d958a" stroke="#9d958a"/><path d="M235.192 335.305h1v-1l4 11 3 3 1 8-5-12-4-8v1l-2 2 1-4z" class="Ag Ah"/><path d="M97.192 338.305c2 0 3-2 4-3l1 2-6 4z" class="Aw Ax"/><path d="M137.192 336.305l2 2v10l-2 6-1 5h2v13l-4-7v-8l-2 3-1-2 3-7 2 2 1-7v-4l-2-1c2-1 2-3 2-5z" class="Aq Ar"/><path d="M246.192 336.305l1 4 8 11c2 4 3 9 6 12l2 7c-1-6 0-13-3-19l-2-5-1-3 4 7c2 3 2 7 3 10 1 8 1 16-2 23l1-6-1 1 1-2c-1-9-7-16-10-24l-2-3c-3-4-5-9-5-13z" fill="#1e1412" stroke="#1e1412"/><path d="M306.192 335.305l1 11-2 1v-5z" fill="#bb9579" stroke="#bb9579"/><path d="M311.192 336.305c1 7 7 10 12 14a62 62 0 0 1-3-1 21 21 0 0 1-9-10z" class="Ag Ah"/><path d="M235.192 336.305l4 8h-3l-2-3 1-4z" fill="#d5c5a8" stroke="#d5c5a8"/><path d="M176.192 344.305l1-7 1 6z" fill="#e7e7d9" stroke="#e7e7d9"/><path d="M353.192 338.305l1 7-5-4c2 0 3-1 4-3z" fill="#a67959" stroke="#a67959"/><path d="M282.192 339.305c2 7 1 15-2 22v-15z" class="Ai Aj"/><path d="M171.192 340.305l2 2c-3 2-1 6 0 9-3-2-5-5-6-8l2 1z" fill="#d8ccb9" stroke="#d8ccb9"/><path d="M247.192 340.305c4 2 6 6 8 9l3-3 2 5-3 1-2-2v1z" fill="#dca373" stroke="#dca373"/><path d="M234.192 341.305l2 3h3l5 12v1l1-4 2-1 3 2 1-1 2-1c3 8 9 15 10 24l-1 2-9 8-1-16-2 13c-2 3 1 6 2 9l3 7c-2 2-2 5-2 7v13-11c-2-6-6-10-8-15l2 7-10-4c-4 0-7 1-10 3l-5 3 5-8 2-4-3-1-7 11-2 1c-2-3-6-1-9 0l-2-4 10-12c-5 4-9 9-15 12a35 35 0 0 0-1 1l-5 1 4-3-3-2c4-4 8-7 11-12l-1-3 5-8 7-7 11-8-5 1 5-9z" fill="#f4f3ee" stroke="#f4f3ee"/><path d="M312.192 341.305l8 8-2 1v6c-3-4-5-8-6-13z" class="Au Av"/><path d="M104.192 343.305v-1c2 4 1 8 0 12l-3 2-1-1 1-2z" fill="#a86d43" stroke="#a86d43"/><path d="M312.192 347.305v-4c1 5 3 9 6 13l2 2c-4-3-6-7-8-11z" class="Ag Ah"/><path d="M94.192 357.305c-1-5 0-10 1-14l1 3z" class="As At"/><path d="M139.192 348.305c1-2 1-4 3-5l2 6v-1c1-2 0-4 2-5l1 5 1-4c3 4 4 8 4 13l1-8c3 4 7 7 7 12l1 1 3-5c4 2 8 4 10 7l1 1 1-2 5 5c3 5 4 11 6 16l5 11-8-4-3-1-1 5v2h-3c-1 2-3 4-6 5l-2 2-1-6-1 9-3-15c1 4 0 9 2 14l-7-7c-4-2-8 0-12 0l7-8 1-1-3-1-2 1-4 6-7 8 1-2-4-5-6 1 12-10 3-4c0-5-4-10-5-16l1-8-4-3v-3z" fill="#f4f3ee" stroke="#f4f3ee"/><path d="M363.192 348.305l4-5v7z" fill="#d9a475" stroke="#d9a475"/><path d="M299.192 345.305l3 12-1 1v6l-1-5-3 4 1-6z" class="BS BT"/><path d="M134.192 351.305l3-5-1 7z" class="Am An"/><path d="M243.192 348.305l5 1 3 4-1 1-3-2-2 1-1 4v-1z" fill="#fbc69e" stroke="#fbc69e"/><path d="M343.192 357.305l1-10v10l2 8c-2-2-3-5-3-8z" class="Ag Ah"/><path d="M100.192 349.305l1 1v3l-1 2-1 5-1 12v-10zm155 1l2 2 3-1c3 6 2 13 3 19l-2-6c-3-4-4-9-6-13z" fill="#e7e7d9" stroke="#e7e7d9"/><path d="M349.192 357.305v-7l1 9c1 5 5 10 8 15v4c-1-2-2-6-4-7l-1-1-5-13z" class="Ag Ah"/><path d="M213.192 362.305l2-9 1 6 1 1 1 4-7 7-5 8 1 3c-3 5-7 8-11 12l-5 3-1 1h-2c0-3-3-5-5-7h1l8 4-5-11c-2-5-3-11-6-16l-1-3-3-7c6 7 10 17 18 23l-3-5 7 4-3-3h5l-2-3h6c2-6 5-12 6-19l1 8z" fill="#14121c" stroke="#14121c"/><path d="M101.192 356.305l3-2 1 8v2l-2 3c-2-1-2-3-3-5l-1-2 1-5z" fill="#d28450" stroke="#d28450"/><path d="M136.192 359.305l1-5v3l4 3-1 8-1-6 2 20-5-5 1-1 1-2v-15h-2z" fill="#c0b6aa" stroke="#c0b6aa"/><path d="M110.192 361.305l1-3c-1 3-2 6-1 9 2 4 3 9 8 11-2-5-3-11-2-16l2 10c1 4 1 9 4 12l5 2v4l-3-2-1-2-9-1-3-1 8-1c0-6-11-2-10-9h1c0 1 1 5 3 3l-2-3-1-5h-3z" fill="#1f0500" stroke="#1f0500"/><path d="M266.192 358.305l4 11v10l-3-2v-16z" class="Ag Ah"/><path d="M105.192 362.305l2-2 3 1-3 8-1 2c-1-2-2-5-1-7z" fill="#cc8a60" stroke="#cc8a60"/><path d="M116.192 360.305l4 2v5l-2 5-2-10z" fill="#c1723d" stroke="#c1723d"/><path d="M264.192 360.305l3 1v16c-1 7-7 11-11 17l-1-2-4-3 1 3c-1-3-4-6-2-9l2-13 1 16 9-8 1-1-1 6c3-7 3-15 2-23z" fill="#b6a288" stroke="#b6a288"/><path d="M276.192 361.305l-1 13 1 2c-1 3-2 7-1 11l2-11c2 3 3 7 3 11 0-5 2-9 4-13-1 5-3 10 0 15v2l-6 2-1 1c-4 2-6 7-8 10-3 5-2 11 0 16l1-5 2 4v1c1 4 4 7 8 7 3 1 6-2 8-5l-2 5h4a48 48 0 0 0 2-3l-1 3 3-1h1l1 1c4 1 8 0 11-1l10-4 9-7-4 6 12-2c7 0 14 0 21-2v1l-1-6 2 1 3 1-1-8-2-11v-1l-1-1-1-15c-1-3-2-5-1-8l1 1c-1 6 1 12 6 14l1 6c1 2 1 5-1 6l-3-12 3 18 22 1-21 2-1 1 36 1h-36c0 2 2 2 4 2l26 3h-8c-7 1-14 2-21 1l-1 1v1l-3 3h1c10-1 21 1 31 2l-6 1v1h-1v1h-4l6 1c-10-1-20 1-30 1l-32 1 1 1-28 3c-12-1-24-2-36-1l-18 2 6-2-5-1 7-4 3-3 1-3v-13c3 2 3 7 4 11 3-6 1-13-2-18l-3-7-1-3 4 3 1 2c4-6 10-10 11-17l3 2a80 80 0 0 0 0 4l4-16z" fill="#14121d" stroke="#14121d"/><path d="M139.192 362.305l1 6c1 6 5 11 5 16l-3 4-12 10c-7 3-10 11-11 18 2-4 5-8 9-10-3 3-6 6-7 11-1 2 0 4 1 7l2-10-1 9c1 3 3 7 7 7l-3-4h3l3 4h-1l8 2h4c6 1 12 0 18-1 3 0 5-2 5-5l4-2 2 6c2 0 4 0 6-2l5 3v-1l1-3 4 5v-10c1-7 3-13 7-18l3-4 1-2a35 35 0 0 1 1-1c6-3 10-8 15-12l-10 12-1 1c-9 7-14 18-14 29 0 3 0 5 3 7 5 2 12 3 17 0l5-7 2-10v-11l1-4 8-11v3l-5 8-1 9v7l1 1v14l4 1-1-4c1 2 3 4 5 3l9-3 1-2 2 1 5 1-6 2c-8 3-17 3-25 5-8 1-15 0-23-1-6 0-11-3-17-2-16-1-33 2-49-1-6-2-13-1-19-1 6 0 12-2 18-1l-1-2h-2l-6-1 4-1v-2c-6-2-12 0-18-1l13-1h3c2 0 0-2-1-2h-16c-3 1-5 3-8 3l-36-1 11-2c-6-1-13-3-19-2a166 166 0 0 1-11 0l11-1h14l-1-3v2h-5c2-1 5 0 5-3h-29l-9-1-18-1 55-1c0-5 0-11 3-15s7-7 12-9a54 54 0 0 1 4 1c-7 1-14 6-16 14-2 4-1 9 0 14l4 2c4 2 9 1 13 0l-1-2 1-13v11c0 3 2 5 4 5h9c4 0 8 1 11-1l10-1 1-5c2-5 4-10 8-14l-14-4h8l-5-2 5 2 10-1v-3h-2v-4l1-2-4-4-3-8v-3l7 13 1-8 5 11v-10l3 1-1 1 5 5z" fill="#120f18" stroke="#120f18"/><path d="M318.192 362.305l5 5v2z" class="Ak Al"/><path d="M103.192 367.305l2-3c-1 2 0 5 1 7l1-2h3l1 5h-4l3 6c-6-2-6-8-7-13z" fill="#2a1b1c" stroke="#2a1b1c"/><path d="M118.192 372.305l2-5 1 5 3 8v2l1 2h-3c-3-3-3-8-4-12z" fill="#975734" stroke="#975734"/><path d="M270.192 369.305l4-2-4 16v-4z" fill="#d8a882" stroke="#d8a882"/><path d="M359.192 367.305c2 2 3 5 3 8l2-3 1 3c-3 1-3 2-3 4l-2-2v8c-5-2-7-8-6-14 2 1 3 5 4 7v-4l3 2z" fill="#9e5f36" stroke="#9e5f36"/><path d="M313.192 370.305c4 1 4 6 6 9 2-2 1-5 1-7l2 3-1 7c2 3 3 6 6 7l1 2-6-1-3-8-1 3 2 5c-2-1-4-2-5-5 0-5 0-10-2-15z" fill="#ab673b" stroke="#ab673b"/><path d="M336.192 381.305l1-11 1 1-2 15-5-11-1-4c2 3 3 8 6 10zm-11-9l3 6 6 9 3 1-2 3-9-12-2-7z" class="Ag Ah"/><path d="M338.192 371.305l1 1c-1 6 0 12 1 18h-3l1 2-3-1 2-3-3-1 2-1z" fill="#9e6040" stroke="#9e6040"/><path d="M339.192 372.305l3 6 1-6c3 2 5 5 6 8l-2-1v3l1 4-3 5-3-9 3 12-5-4c-1-6-2-12-1-18z" fill="#d08349" stroke="#d08349"/><path d="M110.192 374.305h1l2 3c-2 2-3-2-3-3z" fill="#f9f9f9" stroke="#f9f9f9"/><path d="M331.192 375.305l5 11-2 1-6-9z" class="BI BJ"/><path d="M321.192 382.305l1-7 2 6 2 6 1 2z" class="Ag Ah"/><path d="M362.192 379.305c0-2 0-3 3-4-1 7 5 13 2 20l-3-11v-1l-2 2-2-5v-3z" fill="#282426" stroke="#282426"/><path d="M354.192 378.305l1 15v3c-3-3-4-7-4-11l-1 4-2-6-1-1v-3l2 1 4 1z" fill="#c17343" stroke="#c17343"/><path d="M324.192 379.305h2l9 12c-4 0-6-3-9-4l-2-6z" fill="#9f6139" stroke="#9f6139"/><path d="M308.192 379.305l3 3v-1l3 4h-5z" fill="#574c46" stroke="#574c46"/><path d="M360.192 380.305l2 5 2-2v1a29 29 0 0 1-3 7l-1-6z" fill="#8a6d5d" stroke="#8a6d5d"/><path d="M124.192 382.305v-2l4 4-1 2-5-2h3z" fill="#66483d" stroke="#66483d"/><path d="M342.192 382.305l3 9 2 4-1 1-2-1-6-3-1-2h3l5 4zm5 0l1 1 2 6 1-4c0 4 1 8 4 11v-3l1 1v1l-1 3h-2l-3-8v6a51 51 0 0 1-1-2l-1-8z" class="Ag Ah"/><path d="M136.192 383.305c2 0 2 1 2 2-2 0-2 0-2-2z" fill="#47454c" stroke="#47454c"/><path d="M77.192 387.305l8-3h26l3 1c3 2 6 2 9 1l1 2h-7l-4-1-3-1c-2-3-7-1-10-1-6 0-11-1-17 1h7l-6 1-3 1a54 54 0 0 0-4-1z" class="Aq Ar"/><path d="M83.192 386.305c6-2 11-1 17-1 3 0 8-2 10 1a293 293 0 0 0-27 0z" fill="#0d0805" stroke="#0d0805"/><path d="M114.192 385.305l9 1c-3 1-6 1-9-1z" class="Ay Az"/><path d="M90.192 386.305h20l3 1-11 3-2-1 3-1h-7l-10 4v-3l-2-2z" fill="#f8ead5" stroke="#f8ead5"/><path d="M348.192 386.305l1 8-2 1-2-4z" class="BG BH"/><path d="M113.192 387.305l4 1-3 2-1 1-8 1-2 2-2 2 2-4h-2l-7-1 6-2 2 1z" fill="#f2cfa5" stroke="#f2cfa5"/><path d="M326.192 387.305c3 1 5 4 9 4l3 1 6 3 2 1 1 2 5-1 1 1h2l1-3 2 11-1 3-9-8-10-5-11-5v-2z" fill="#c5723d" stroke="#c5723d"/><path d="M65.192 402.305a21 21 0 0 1 19-15l2 2v3l-3-1 1-1c-5-1-11 2-14 6l-5 7z" fill="#dba57b" stroke="#dba57b"/><path d="M86.192 392.305l10-4h7l-3 1-6 2c-5 2-10 3-12 7-3 6-3 13-1 18l1 2c-4 1-9 2-13 0l9 1-1-14c1-4 1-8 4-11v-3h2z" class="Ag Ah"/><path d="M117.192 388.305h7l3 2h2v3l-10 1-5-2 5 2h-11l5-3 1-1z" fill="#af693b" stroke="#af693b"/><path d="M70.192 396.305c3-4 9-7 14-6l-1 1h-2v3c-3 3-3 7-4 11l-3 5-8 2-1 4c-1-5-2-10 0-14v1l1 3 6-10z" fill="#f39d55" stroke="#f39d55"/><path d="M150.192 390.305l2-1 3 1-1 1c-3 0-5 4-8 5z" fill="#aaa59f" stroke="#aaa59f"/><path d="M226.192 389.305l3 1-2 4v-3l-8 11v-2z" fill="#918b83" stroke="#918b83"/><path d="M150.192 390.305z" fill="#6e6965" stroke="#6e6965"/><path d="M181.192 390.305l3 1h-1c2 2 5 4 5 7v1l-1-3-3-2-4 1z" fill="#e0b593" stroke="#e0b593"/><path d="M278.192 393.305l6-2c9-1 17-3 26-1l8 5c-5 3-10 2-15 3 3-2 7-3 10-3-4-1-8-1-12 1l-9-1v-2h-2l-11 2z" fill="#f4f4eb" stroke="#f4f4eb"/><path d="M310.192 390.305c9 2 19 2 28 6l10 5 9 8 1-3 1 8-3-1-2-1 1 6v-1l-6-3-4 4-11 1-12 2 4-6-9 7-10 4c-3 1-7 2-11 1l-1-1c7 2 14-1 20-5-7 1-14 1-21-1v-6c1-6 3-13 9-16 5-1 10 0 15-3z" class="BM BN"/><path d="M82.192 398.305c2-4 7-5 12-7l7 1-12 12v5l-4 6-3-1v-11l-1 13c-2-5-2-12 1-18z" fill="#ef9d56" stroke="#ef9d56"/><path d="M105.192 392.305l8-1-5 3c-9 4-14 15-10 25l8-1c-3 2-7 1-11 1-2-5-1-10 0-14s4-6 6-9l2-2z" fill="#230500" stroke="#230500"/><path d="M146.192 396.305c3-1 5-5 8-5l-7 8-7 10c-3 5-3 11-2 17l2 6-8-2h3v-8c0-6 2-12 4-18z" fill="#1f0901" stroke="#1f0901"/><path d="M350.192 390.305l3 8-1-1-2-3z" class="Ai Aj"/><path d="M101.192 392.305h2l-2 4c-2 3-5 5-6 9s-2 9 0 14h-9c-2 0-4-2-4-5l3 1 4-6v-5z" fill="#b36838" stroke="#b36838"/><path d="M164.192 392.305l3 15 1-9 1 6 1 17 1 3-4 2v-17l-1-3c-2-5-1-10-2-14z" class="Ag Ah"/><path d="M191.192 397.305l5-3 3 2-4 3 5-1-1 2h-7z" fill="#f8ddc8" stroke="#f8ddc8"/><path d="M245.192 393.305c2 5 6 9 8 15v11l-1 3-1-3-2 6-7 4-2-1 1-1c-6 2-11 2-17 2l-2-7v-3l-1-1 1-4h2l3-15c3-2 6-3 10-3l10 4z" fill="#f19e55" stroke="#f19e55"/><path d="M277.192 394.305l1-1 1 2 11-2-4 2c-6 1-9 6-12 11-2 4-3 9-2 13l-2-4c0-7 3-14 8-19z" fill="#4a3023" stroke="#4a3023"/><path d="M290.192 393.305h2v2l9 1-3 1c-4 0-9 1-12-2z" fill="#ebcfaf" stroke="#ebcfaf"/><path d="M98.192 419.305c-4-10 1-21 10-25h3l14 4c-4 4-6 9-8 14l-1 5-10 1z" fill="#bd6b34" stroke="#bd6b34"/><path d="M180.192 395.305l4-1 3 2 1 3v-1h2l-2 6c-3 6-4 13-4 20-4 0-7-2-9-4s-4 0-5 1l-1-17 2-2c3-1 5-3 6-5h3z" fill="#f19d55" stroke="#f19d55"/><path d="M269.192 404.305c2-3 4-8 8-10l1 2a36 36 0 0 0-9 24c-2-5-3-11 0-16z" fill="#da9162" stroke="#da9162"/><path d="M301.192 396.305c4-2 8-2 12-1-3 0-7 1-10 3-6 3-8 10-9 16l-2 10a48 48 0 0 1-2 3h-1l2-8 2-13a13 13 0 0 1 5-9z" fill="#1e0600" stroke="#1e0600"/><path d="M349.192 394.305l1 2v-2l2 3-5 1-1-2 1-1z" class="Ak Al"/><path d="M274.192 406.305c3-5 6-10 12-11 3 3 8 2 12 2a13 13 0 0 0-5 9l-2 13-13-1c-2-1-4 1-6 2v-1c-1-4 0-9 2-13z" fill="#f09c53" stroke="#f09c53"/><path d="M70.192 396.305h2l-6 10-1-3z" fill="#a65f29" stroke="#a65f29"/><path d="M130.192 398.305l6-1 4 5-1 2c-2 6-4 12-4 18h-4l-1 4h-3l3 4c-4 0-6-4-7-7l1-9-2 10c-1-3-2-5-1-7 1-5 4-8 7-11-4 2-7 6-9 10 1-7 4-15 11-18z" fill="#ef9e57" stroke="#ef9e57"/><path d="M205.192 398.305l1-1 2 4c3-1 7-3 9 0l2-1v2l-1 4-1 11c0-5 1-10-1-14s-6-1-9 0z" fill="#e0b491" stroke="#e0b491"/><path d="M190.192 398.305l1-1 1 3h7l-3 4-2-1-5 6-1-1 4-7-4 3z" fill="#e0a67a" stroke="#e0a67a"/><path d="M191.192 427.305c0-11 5-22 14-29l2 5c3-1 7-4 9 0s1 9 1 14l1-11v11l-2 10v-3l-6 6c-6 1-11-1-16-4z" fill="#f19e54" stroke="#f19e54"/><path d="M140.192 409.305l7-10c4 0 8-2 12 0l7 7 1 3c-1 6 1 13-3 18-5 4-11-1-16 2-4 1-8-2-10-5 2-5 2-10 2-15z" class="BM BN"/><path d="M222.192 402.305l5-3-3 15h-2l-1-3z" fill="#c88049" stroke="#c88049"/><path d="M255.192 399.305c3 5 5 12 2 18-1-4-1-9-4-11z" fill="#df9c6f" stroke="#df9c6f"/><path d="M188.192 404.305l4-3-4 7-2 10v9l-2 3v-6c0-7 1-14 4-20z" class="Ag Ah"/><path d="M194.192 403.305l2 1c-4 5-6 11-7 18l-2 4-1-8 2-10 1 1z" class="BI BJ"/><path d="M74.192 410.305l3-5 1 14-9-1-4-2 1-4z" fill="#c3733a" stroke="#c3733a"/><path d="M311.192 412.305c3-2 5-5 8-4v1c-3 3-7 6-9 10l3-8z" class="Ag Ah"/><path d="M138.192 426.305c-1-6-1-12 2-17 0 5 0 10-2 15 2 3 6 6 10 5 5-3 11 2 16-2 4-5 2-12 3-18v17c0 3-2 5-5 5-6 1-12-1-18-1l2 2h-6z" fill="#c6754a" stroke="#c6754a"/><path d="M314.192 411.305c0-1 1-3 3-2z" class="Ai Aj"/><path d="M221.192 411.305l1 3-1 4z" fill="#ad997c" stroke="#ad997c"/><path d="M.192 416.305c1-4 5-2 7-4l18 1-18 3z" fill="#b7b7b7" stroke="#b7b7b7"/><path d="M25.192 413.305l9 1c2 2 5 1 8 2h-35z" fill="#b5b5b7" stroke="#b5b5b7"/><path d="M361.192 414.305c7 1 14 0 21-1l5 2h-27z" fill="#8b8b8e" stroke="#8b8b8e"/><path d="M292.192 424.305l2-10v6c7 2 14 2 21 1-6 4-13 7-20 5h-1l-3 1z" fill="#b56a31" stroke="#b56a31"/><path d="M349.192 414.305l6 3c-7 2-14 2-21 2l11-1z" fill="#b17953" stroke="#b17953"/><path d="M356.192 414.305c4 1-1 3 0 0z" fill="#957456" stroke="#957456"/><path d="M360.192 416.305c8 1 17 0 26 2h14-41l-1 1h-1z" class="Aq Ar"/><path d="M10.192 417.305h40v1l-11 1h-1l-1 1-26-1h23l-24-1z" fill="#a8a8aa" stroke="#a8a8aa"/><path d="M186.192 427.305v-9l1 8 2-4v10z" class="BG BH"/><path d="M272.192 420.305c2-1 4-3 6-2l13 1-2 8h-3l2-5c-2 3-5 6-8 5-4 0-7-3-8-7z" fill="#bf6e37" stroke="#bf6e37"/><path d="M170.192 421.305c1-1 3-3 5-1s5 4 9 4v7l-5-3c-2 2-4 1-6 2l-2-6z" fill="#c06f3e" stroke="#c06f3e"/><path d="M249.192 425.305l2-6 1 3z" fill="#d69970" stroke="#d69970"/><path d="M94.192 424.305c3 0 5-2 8-3h16a5 5 0 0 0-2 2l-13 1z" fill="#222029" stroke="#222029"/><path d="M118.192 421.305c1 0 3 2 1 2h-3a5 5 0 0 1 2-2z" fill="#5f575c" stroke="#5f575c"/><path d="M131.192 422.305h4v8h-2l-3-4z" fill="#b66838" stroke="#b66838"/><path d="M216.192 434.305l4-12v11z" class="BO BP"/><path d="M222.192 422.305l2 7c6 0 11 0 17-2l-1 1-1 3-9 2c-2 1-4-1-5-3l1 4-4-1z" fill="#bf753e" stroke="#bf753e"/><path d="M.192 424.305l6-1 27 1z" class="Aq Ar"/><path d="M210.192 430.305l6-6v3l-5 7h-17c-3-2-3-4-3-7l3-1c5 3 10 5 16 4z" fill="#bd6e37" stroke="#bd6e37"/><path d="M121.192 425.305v2l-4 1 6 1c-6 0-12 1-17-1z" fill="#79797b" stroke="#79797b"/><path d="M23.192 429.305c6-2 12-2 18-2l9 1 34 1z" class="Am An"/><path d="M144.192 430.305c6 0 12 2 18 1-6 1-12 2-18 1h2z" fill="#a15f48" stroke="#a15f48"/><path d="M386.192 432.305l16-1v1z" class="Aq Ar"/><path d="M327.192 434.305c15-3 31-1 46 0l-27 1z" fill="#212123" stroke="#212123"/><path d="M194.192 434.305h17c-5 3-12 2-17 0z" fill="#5f382b" stroke="#5f382b"/></g></svg>